<svg xmlns="http://www.w3.org/2000/svg" xmlns:xlink="http://www.w3.org/1999/xlink" width="100" height="100" viewBox="0 0 100 100">
    <defs>
        <linearGradient id="b" x1="0%" y1="6.293%" y2="93.707%">
            <stop offset="0%" stop-color="#6A120C"/>
            <stop offset="43.781%" stop-color="#B21F15"/>
            <stop offset="79.575%" stop-color="#EE4C24"/>
            <stop offset="100%" stop-color="#FF7E00"/>
        </linearGradient>
        <path id="a" d="M41.765 71.875c23.026 0 35.11-9.646 35.11-24.116 0-23.64-16.84-18.117-26.33-25.705C43.394 16.338 41.764 0 25.78 0 9.073 0-.965 10.583.074 30.476 1.113 50.369 18.74 71.875 41.765 71.875z"/>
        <linearGradient id="d" x1="50%" x2="50%" y1="0%" y2="100%">
            <stop offset="0%" stop-color="#1E7E99"/>
            <stop offset="100%" stop-color="#0D4860"/>
        </linearGradient>
        <path id="e" d="M0 0h51.25v53.125H0z"/>
        <filter id="g" width="202.9%" height="427.3%" x="-51.4%" y="-163.6%" filterUnits="objectBoundingBox">
            <feGaussianBlur in="SourceGraphic" stdDeviation="3.75"/>
        </filter>
        <linearGradient id="h" x1="0%" y1="16.088%" y2="83.912%">
            <stop offset="0%" stop-color="#F8091E"/>
            <stop offset="100%" stop-color="#A9085A"/>
        </linearGradient>
    </defs>
    <g fill="none" fill-rule="evenodd">
        <path d="M0 0h100v100H0z"/>
        <g transform="translate(6.25 20)">
            <mask id="c" fill="#fff">
                <use xlink:href="#a"/>
            </mask>
            <use fill="url(#b)" fill-rule="nonzero" xlink:href="#a"/>
            <rect width="39.375" height="70" x="20.015" y="15.859" fill="#9EE0CB" fill-rule="nonzero" stroke="#0D4860" stroke-width="6.875" mask="url(#c)" rx="10" transform="rotate(-25 39.703 50.86)"/>
            <rect width="39.375" height="70" x="22.515" y="11.484" fill="#9EE0CB" fill-rule="nonzero" stroke="url(#d)" stroke-width="6.875" mask="url(#c)" rx="10" transform="rotate(-25 42.203 46.484)"/>
        </g>
        <g transform="translate(20.625 7.5)">
            <mask id="f" fill="#fff">
                <use xlink:href="#e"/>
            </mask>
            <rect width="39.375" height="70" x="8.14" y="23.984" fill="#9EE0CB" fill-rule="nonzero" stroke="url(#d)" stroke-width="6.875" mask="url(#f)" rx="10" transform="rotate(-25 27.828 58.984)"/>
        </g>
        <ellipse cx="12.813" cy="37.813" fill="#031218" fill-rule="nonzero" filter="url(#g)" opacity=".5" rx="10.938" ry="3.438" transform="translate(48.125 26.25)"/>
        <path fill="url(#h)" fill-rule="nonzero" d="M55.625 30.625H87.5a3.75 3.75 0 0 1 3.75 3.75V52.5a3.75 3.75 0 0 1-3.75 3.75H65.983l-7.777 6.803V56.25h-2.581a3.75 3.75 0 0 1-3.75-3.75V34.375a3.75 3.75 0 0 1 3.75-3.75z"/>
        <path fill="#FFF" d="M60.495 43.12c.1-.09.225-.187.375-.292.15-.105.302-.21.458-.315.155-.105.312-.2.472-.285.16-.085.3-.147.42-.187l.36-.12.6 1.86-.36.12c-.13.04-.28.07-.45.09-.17.02-.35.032-.54.037-.19.005-.375.008-.555.008h-.48a12.623 12.623 0 0 1 .832.607c.146.115.283.233.413.353.13.12.235.235.315.345l.24.315-1.59 1.125-.225-.3c-.08-.1-.157-.23-.233-.39a9.475 9.475 0 0 1-.217-.503 5.804 5.804 0 0 1-.18-.517l-.135-.465-.135.465c-.05.17-.11.342-.18.517-.07.175-.142.343-.218.503-.075.16-.152.29-.232.39l-.225.3-1.59-1.125.24-.315c.08-.11.185-.225.315-.345.13-.12.267-.238.413-.353a12.474 12.474 0 0 1 .832-.607h-.48c-.18 0-.365-.003-.555-.008a5.973 5.973 0 0 1-.54-.037c-.17-.02-.32-.05-.45-.09l-.36-.12.6-1.86.36.12c.12.04.26.102.42.187.16.085.317.18.473.285.155.105.304.21.45.315.145.105.272.203.382.293a7.831 7.831 0 0 1-.157-.458 16.545 16.545 0 0 1-.158-.532 7.447 7.447 0 0 1-.127-.533 2.375 2.375 0 0 1-.053-.457v-.375h1.95v.375c0 .13-.017.282-.053.457a7.447 7.447 0 0 1-.127.533c-.05.18-.102.357-.157.532a7.831 7.831 0 0 1-.158.458zm7.53 0c.1-.09.225-.187.375-.292.15-.105.302-.21.457-.315.156-.105.313-.2.473-.285.16-.085.3-.147.42-.187l.36-.12.6 1.86-.36.12c-.13.04-.28.07-.45.09-.17.02-.35.032-.54.037-.19.005-.375.008-.555.008h-.48a12.623 12.623 0 0 1 .832.607c.146.115.283.233.413.353.13.12.235.235.315.345l.24.315-1.59 1.125-.225-.3c-.08-.1-.157-.23-.233-.39a9.475 9.475 0 0 1-.217-.503 5.804 5.804 0 0 1-.18-.517l-.135-.465-.135.465c-.05.17-.11.342-.18.517-.07.175-.142.343-.218.503-.075.16-.152.29-.232.39l-.225.3-1.59-1.125.24-.315c.08-.11.185-.225.315-.345.13-.12.267-.238.413-.353a12.474 12.474 0 0 1 .832-.607h-.48c-.18 0-.365-.003-.555-.008a5.973 5.973 0 0 1-.54-.037c-.17-.02-.32-.05-.45-.09l-.36-.12.6-1.86.36.12c.12.04.26.102.42.187.16.085.317.18.472.285.156.105.305.21.45.315.146.105.273.203.383.293a7.831 7.831 0 0 1-.157-.458 16.545 16.545 0 0 1-.158-.532 7.447 7.447 0 0 1-.127-.533 2.375 2.375 0 0 1-.053-.457v-.375h1.95v.375c0 .13-.017.282-.052.457a7.447 7.447 0 0 1-.128.533c-.05.18-.102.357-.157.532a7.831 7.831 0 0 1-.158.458zm7.53 0c.1-.09.225-.187.375-.292.15-.105.302-.21.457-.315.156-.105.313-.2.473-.285.16-.085.3-.147.42-.187l.36-.12.6 1.86-.36.12c-.13.04-.28.07-.45.09-.17.02-.35.032-.54.037-.19.005-.375.008-.555.008h-.48a12.623 12.623 0 0 1 .832.607c.146.115.283.233.413.353.13.12.235.235.315.345l.24.315-1.59 1.125-.225-.3c-.08-.1-.157-.23-.233-.39a9.475 9.475 0 0 1-.217-.503 5.804 5.804 0 0 1-.18-.517l-.135-.465-.135.465c-.05.17-.11.342-.18.517-.07.175-.142.343-.218.503-.075.16-.152.29-.232.39l-.225.3-1.59-1.125.24-.315c.08-.11.185-.225.315-.345.13-.12.267-.238.413-.353a12.474 12.474 0 0 1 .832-.607h-.48c-.18 0-.365-.003-.555-.008a5.973 5.973 0 0 1-.54-.037c-.17-.02-.32-.05-.45-.09l-.36-.12.6-1.86.36.12c.12.04.26.102.42.187.16.085.317.18.472.285.156.105.305.21.45.315.146.105.273.203.383.293a7.831 7.831 0 0 1-.157-.458 16.545 16.545 0 0 1-.158-.532 7.447 7.447 0 0 1-.127-.533 2.375 2.375 0 0 1-.053-.457v-.375h1.95v.375c0 .13-.017.282-.052.457a7.447 7.447 0 0 1-.128.533c-.05.18-.102.357-.157.532a7.831 7.831 0 0 1-.158.458zm7.53 0c.1-.09.225-.187.375-.292.15-.105.302-.21.458-.315.155-.105.312-.2.472-.285.16-.085.3-.147.42-.187l.36-.12.6 1.86-.36.12c-.13.04-.28.07-.45.09-.17.02-.35.032-.54.037-.19.005-.375.008-.555.008h-.48a12.623 12.623 0 0 1 .832.607c.146.115.283.233.413.353.13.12.235.235.315.345l.24.315-1.59 1.125-.225-.3c-.08-.1-.157-.23-.233-.39a9.475 9.475 0 0 1-.217-.503 5.804 5.804 0 0 1-.18-.517l-.135-.465-.135.465c-.05.17-.11.342-.18.517-.07.175-.142.343-.218.503-.075.16-.152.29-.232.39l-.225.3-1.59-1.125.24-.315c.08-.11.185-.225.315-.345.13-.12.267-.238.413-.353a12.474 12.474 0 0 1 .832-.607h-.48c-.18 0-.365-.003-.555-.008a5.973 5.973 0 0 1-.54-.037c-.17-.02-.32-.05-.45-.09l-.36-.12.6-1.86.36.12c.12.04.26.102.42.187.16.085.317.18.473.285.155.105.304.21.45.315.145.105.272.203.382.293a7.831 7.831 0 0 1-.157-.458 16.545 16.545 0 0 1-.158-.532 7.447 7.447 0 0 1-.127-.533 2.375 2.375 0 0 1-.053-.457v-.375h1.95v.375c0 .13-.017.282-.052.457a7.447 7.447 0 0 1-.128.533c-.05.18-.102.357-.157.532a7.831 7.831 0 0 1-.158.458z"/>
    </g>
</svg>
