<svg xmlns="http://www.w3.org/2000/svg" xmlns:xlink="http://www.w3.org/1999/xlink" width="100" height="100" viewBox="0 0 100 100">
    <defs>
        <linearGradient id="a" x1="34.093%" x2="107.312%" y1="34.917%" y2="109.125%">
            <stop offset="0%" stop-color="#284050"/>
            <stop offset="51.386%" stop-color="#0EB37E"/>
            <stop offset="100%" stop-color="#FFCB99"/>
        </linearGradient>
        <linearGradient id="b" x1="0%" y1="25.803%" y2="74.197%">
            <stop offset="0%" stop-color="#284050"/>
            <stop offset="100%" stop-color="#0EB37E"/>
        </linearGradient>
        <linearGradient id="d" x1="0%" x2="99.397%" y1="6.293%" y2="93.18%">
            <stop offset="0%" stop-color="#6ED1B1"/>
            <stop offset="100%" stop-color="#FFCB99"/>
        </linearGradient>
        <path id="c" d="M41.765 71.875c23.026 0 35.11-9.646 35.11-24.116 0-23.64-16.84-18.117-26.33-25.705C43.394 16.338 41.764 0 25.78 0 9.073 0-.965 10.583.074 30.476 1.113 50.369 18.74 71.875 41.765 71.875z"/>
        <radialGradient id="e" cx="41.642%" cy="78.733%" r="202.934%" fx="41.642%" fy="78.733%" gradientTransform="matrix(.6208 .68082 -.78397 .53912 .775 .08)">
            <stop offset="0%" stop-color="#470C08"/>
            <stop offset="66.884%" stop-color="#B21F15"/>
            <stop offset="100%" stop-color="#BE3C1C"/>
        </radialGradient>
        <linearGradient id="g" x1="-5.397%" x2="107.312%" y1="9.566%" y2="94.79%">
            <stop offset="0%" stop-color="#284050"/>
            <stop offset="51.386%" stop-color="#0EB37E"/>
            <stop offset="100%" stop-color="#FFCB99"/>
        </linearGradient>
        <linearGradient id="h" x1="50%" x2="50%" y1="38.58%" y2="100%">
            <stop offset="0%" stop-color="#FFF"/>
            <stop offset="100%" stop-color="#9FBDC9"/>
        </linearGradient>
        <linearGradient id="i" x1="46.245%" x2="50%" y1="55.01%" y2="44.314%">
            <stop offset="0%" stop-color="#470C08"/>
            <stop offset="66.884%" stop-color="#B21F15"/>
            <stop offset="100%" stop-color="#BE3C1C"/>
        </linearGradient>
    </defs>
    <g fill="none" fill-rule="evenodd">
        <g fill-rule="nonzero">
            <path fill="url(#a)" d="M17.962 8.487s.276.436.18 2.139c-.07 1.231-.735 1.881-1.108 2.122-.295.19-.594-.202-.58-.736.055-2.037 1.248-3.287.778-4.93-.008-.027-.014-.053-.023-.08-.36-1.148-2.975-2.79-4-3.377a22.116 22.116 0 0 0-2.146-1.048c.911-.68 1.923-1.362 2.925-1.649.925-.265 5.534-2.14 8.808 1.582 0 0-5.978.607-4.68 2.297.623.811 3.344-1.797 5.076-1.535 1.811.248 5.81 3.496 5.722 4.959 0 0-7.054.173-5.794 2.976.716 1.593 4.018-2.936 6.449-2.178 1.356.422 4.537 3.81 4.988 6.195 0 0-4.096-1.993-5.331-1.01-2.044 1.65 3.225 1.454 3.752 1.483 2.036-.075 2.623 1.133 3.023 3.203.222 1.051 2.43 7.938 1.835 8.196-1.286.028-5.076-1.581-5.799-2.31-.619-.597-3.312-5.021-2.66-3.231.247.676 1.948 2.207 2.221 3.265.188.728-2.268-2.464-2.731-3.15-1.722-4.655-5.874-9.255-8.239-11.633-1.066-1.063-2.258-2.427-2.666-1.55" transform="rotate(-32 94.406 -67.284)"/>
            <path fill="url(#b)" d="M2.116 4.425C1.316 5.973.148 7.79.108 9.428c-.047 1.612 1.18 2.807 2.724 3.744.79.48 1.66.892 2.488 1.258.265-.075.53-.142.793-.2 2.678-.588 5.362-.315 8.661.14 1.971.273 4.723.572 6.488 1.483 1.858.862 4.001 2.442 4.416 2.757 1.752 1.337 3.178 3.225 3.178 3.225-1.723-4.702-5.88-9.349-8.247-11.75-1.067-1.074-2.26-2.452-2.669-1.566 0 0 .277.44.18 2.16-.07 1.244-.735 1.9-1.109 2.143-.295.192-.594-.204-.58-.743.055-2.057 1.25-3.32.778-4.98l-.022-.08c-.36-1.16-2.978-2.818-4.005-3.411a22.054 22.054 0 0 0-2.148-1.059l-.028-.012c-1.182-.47-2.453-.786-3.595-.682-1.578.112-2.415.789-2.45 1.552 1.171 1.157 1.92 2.067 2.499 2.946.465.708.82 1.396 1.193 2.177.24.5.49 1.93-1.301.444-.297-.246-.763-.829-1.109-1.375-.19-.3-.342-.588-.412-.803-.484-1.432-1.723-3.468-1.723-3.468-.745-1.422-1.256-.326-1.992 1.097" transform="rotate(-32 94.406 -67.284)"/>
        </g>
        <g fill-rule="nonzero">
            <path fill="url(#a)" d="M17.962 8.487s.276.436.18 2.139c-.07 1.231-.735 1.881-1.108 2.122-.295.19-.594-.202-.58-.736.055-2.037 1.248-3.287.778-4.93-.008-.027-.014-.053-.023-.08-.36-1.148-2.975-2.79-4-3.377a22.116 22.116 0 0 0-2.146-1.048c.911-.68 1.923-1.362 2.925-1.649.925-.265 5.534-2.14 8.808 1.582 0 0-5.978.607-4.68 2.297.623.811 3.344-1.797 5.076-1.535 1.811.248 5.81 3.496 5.722 4.959 0 0-7.054.173-5.794 2.976.716 1.593 4.018-2.936 6.449-2.178 1.356.422 4.537 3.81 4.988 6.195 0 0-4.096-1.993-5.331-1.01-2.044 1.65 3.225 1.454 3.752 1.483 2.036-.075 2.623 1.133 3.023 3.203.222 1.051 2.43 7.938 1.835 8.196-1.286.028-5.076-1.581-5.799-2.31-.619-.597-3.312-5.021-2.66-3.231.247.676 1.948 2.207 2.221 3.265.188.728-2.268-2.464-2.731-3.15-1.722-4.655-5.874-9.255-8.239-11.633-1.066-1.063-2.258-2.427-2.666-1.55" transform="rotate(-75 53.279 -4.01)"/>
            <path fill="url(#b)" d="M2.167 4.409C1.367 5.957.2 7.773.16 9.41c-.047 1.612 1.18 2.807 2.724 3.745.79.479 1.66.891 2.488 1.257.265-.075.529-.141.793-.2 2.678-.588 5.362-.315 8.661.14 1.971.273 4.723.573 6.488 1.484 1.857.86 4.001 2.441 4.416 2.757 1.752 1.337 3.178 3.225 3.178 3.225-1.724-4.702-5.88-9.35-8.247-11.751-1.067-1.074-2.26-2.451-2.669-1.566 0 0 .277.44.18 2.16-.07 1.244-.735 1.901-1.109 2.144-.295.192-.595-.204-.58-.744.055-2.057 1.25-3.32.778-4.98l-.022-.08c-.36-1.16-2.978-2.817-4.005-3.41a22.054 22.054 0 0 0-2.148-1.059l-.028-.012c-1.182-.471-2.453-.786-3.595-.682-1.579.111-2.415.788-2.45 1.552 1.171 1.157 1.92 2.066 2.499 2.946.465.707.819 1.395 1.193 2.176.24.501.49 1.93-1.301.445-.297-.246-.763-.83-1.109-1.375-.19-.3-.343-.588-.412-.804C5.398 5.348 4.16 3.312 4.16 3.312c-.745-1.423-1.257-.327-1.992 1.097" transform="rotate(-75 53.279 -4.01)"/>
        </g>
        <path d="M0 0h100v100H0z"/>
        <g transform="translate(6.25 20)">
            <mask id="f" fill="#fff">
                <use xlink:href="#c"/>
            </mask>
            <use fill="url(#d)" fill-rule="nonzero" xlink:href="#c"/>
            <path fill="url(#e)" fill-rule="nonzero" d="M19.375 28.125h41.25v47.5h-41.25z" mask="url(#f)"/>
            <path fill="url(#g)" fill-rule="nonzero" d="M23.586 68.54c-.167.115-1.03.348-1.242.316-.507-.132-.503-.587-.112-.987.573-.587 2.2-.098 1.354.672zm-.971 3.075c.135.368-.252.553-.666.391-.606-.238-.858-1.496-.022-1.122.142.083.615.583.688.731zm-4.333-9.023c.998.611-.94 1.166-1.362 1.184-.812-.058.73-1.581 1.362-1.184zm-1.474 6.049c.07.267.153.654.158.967.072.468.237 1.827-.128 2.131-.611.498-1.075-.635-1.017-1.185.083-.643.241-1.92.604-2.382l.004-.005c.186-.18.281.11.379.474zm-4.333.312c-.008.522-.137 1.71-.587 2.172-.885.82-1.396-.204-1.241-.931.094-.863.713-1.749 1.094-2.5l.006-.013c.82-1.67.77.425.728 1.272zm8.068-3.845c-1.355.359-2.013.479-2.136.054-.155-.536 2.04-1.49 3.885-1.679 1.846-.188 5.338-1.088 5.338-1.088s-.417-2.362-2.416-3.659c-.842-.546-4.413-.949-6.286-.606-1.872.343-4.233 2.954-4.777 3.336-.543.383-1.423-.096-.88-.895 1.917-2.816 7.83-4.067 7.83-4.067s.545-1.058-.999-1.858c-.79-.411-6.367-3.343-11.195-.895-3.644 1.848-.999 9.495-.999 9.495.321.8 1.231 1.993-2.151 3.155-3.382 1.162-5.677 3.752-6 6.087-.323 2.335 2.395 3.873 2.395 3.873 2.337-1.26 3.253-4.588 3.72-5.71.468-1.121 1.343.36.906 1.441-.437 1.082-4.038 3.993-3.635 5.335.403 1.341 6.152 3.738 6.48 2.542.375-1.363 1.002-3.693.89-5.314-.095-1.387.96-1.678 1.524-.53.564 1.147-1.18 2.402-1.763 5.576-.583 3.174 10.454 2.686 9.816 1.78-.638-.906-.785-1.886-1.296-2.61-.51-.725-2.589-6.812-.91-5.863 1.261.713 1.552 2.688 2.148 5.81.452 2.374 2.45 2.74 3.248 2.562 1.01-.226 4.494-1.11 4.3-1.27-.195-.162-3.438-3.65-3.472-4.736-.034-1.088 1.909 1.136 2.05 1.606.141.47 1.741 1.818 2.734 1.958.994.14 4.707-1.44 4.586-1.843-.121-.403-.296-2.793-.75-4.087-.224-.636-1.272-2.526-2.626-2.707-.767-.103-6.431.449-6.774-.692-.342-1.14 7.197.06 7.298-.335.1-.396-.486-4.366-1.716-5.437-1.278-1.113-7.61 1.07-8.367 1.271z" mask="url(#f)" transform="rotate(-154 16.606 67.474)"/>
            <path fill="url(#g)" fill-rule="nonzero" d="M53.855 74.505c-.166.114-1.03.346-1.242.315-.506-.132-.503-.587-.112-.988.573-.586 2.2-.098 1.354.673zm-.971 3.074c.136.368-.252.553-.666.39-.606-.237-.858-1.495-.022-1.12.142.082.615.582.688.73zm-4.333-9.023c.999.611-.94 1.166-1.362 1.184-.812-.058.73-1.581 1.362-1.184zm-1.474 6.048c.071.267.154.655.158.968.073.468.237 1.827-.127 2.131-.612.498-1.076-.636-1.018-1.185.083-.643.241-1.92.604-2.382l.004-.005c.187-.18.281.11.379.473zm-4.333.313c-.007.522-.137 1.709-.587 2.172-.885.82-1.395-.204-1.24-.931.093-.864.712-1.749 1.093-2.501l.006-.012c.82-1.67.77.425.728 1.272zm8.069-3.845c-1.356.358-2.013.479-2.137.054-.155-.536 2.04-1.49 3.886-1.679 1.845-.188 5.337-1.088 5.337-1.088s-.417-2.362-2.416-3.659c-.842-.546-4.413-.949-6.285-.607-1.873.343-4.234 2.955-4.777 3.337-.544.383-1.424-.096-.88-.895 1.916-2.816 7.83-4.067 7.83-4.067s.544-1.058-1-1.858c-.79-.411-6.367-3.343-11.194-.895-3.645 1.848-1 9.495-1 9.495.321.8 1.232 1.993-2.15 3.155-3.383 1.162-5.677 3.752-6 6.087-.323 2.335 2.394 3.873 2.394 3.873 2.338-1.26 3.253-4.588 3.721-5.71.468-1.121 1.342.359.906 1.441-.437 1.082-4.039 3.992-3.636 5.334.403 1.342 6.152 3.739 6.48 2.543.375-1.363 1.003-3.693.89-5.314-.095-1.387.96-1.678 1.524-.53.564 1.146-1.18 2.402-1.763 5.576-.583 3.174 10.454 2.686 9.817 1.78-.638-.906-.786-1.886-1.296-2.61-.511-.725-2.59-6.812-.911-5.863 1.261.713 1.552 2.688 2.148 5.81.452 2.374 2.45 2.74 3.248 2.562 1.01-.226 4.494-1.11 4.3-1.27-.195-.162-3.438-3.65-3.471-4.736-.034-1.088 1.908 1.136 2.049 1.606.141.47 1.741 1.818 2.735 1.958.993.14 4.706-1.44 4.585-1.843-.12-.403-.295-2.793-.75-4.087-.224-.636-1.272-2.526-2.626-2.708-.767-.102-6.431.45-6.773-.69-.343-1.141 7.196.06 7.297-.336.1-.396-.485-4.366-1.716-5.437-1.278-1.113-7.61 1.07-8.366 1.271z" mask="url(#f)"/>
            <g fill-rule="nonzero" mask="url(#f)">
                <path fill="url(#a)" d="M17.962 8.487s.276.436.18 2.139c-.07 1.231-.735 1.881-1.108 2.122-.295.19-.594-.202-.58-.736.055-2.037 1.248-3.287.778-4.93-.008-.027-.014-.053-.023-.08-.36-1.148-2.975-2.79-4-3.377a22.116 22.116 0 0 0-2.146-1.048c.911-.68 1.923-1.362 2.925-1.649.925-.265 5.534-2.14 8.808 1.582 0 0-5.978.607-4.68 2.297.623.811 3.344-1.797 5.076-1.535 1.811.248 5.81 3.496 5.722 4.959 0 0-7.054.173-5.794 2.976.716 1.593 4.018-2.936 6.449-2.178 1.356.422 4.537 3.81 4.988 6.195 0 0-4.096-1.993-5.331-1.01-2.044 1.65 3.225 1.454 3.752 1.483 2.036-.075 2.623 1.133 3.023 3.203.222 1.051 2.43 7.938 1.835 8.196-1.286.028-5.076-1.581-5.799-2.31-.619-.597-3.312-5.021-2.66-3.231.247.676 1.948 2.207 2.221 3.265.188.728-2.268-2.464-2.731-3.15-1.722-4.655-5.874-9.255-8.239-11.633-1.066-1.063-2.258-2.427-2.666-1.55" transform="rotate(-51 95.55 -9.112)"/>
                <path fill="url(#b)" d="M2.137 4.377C1.337 5.925.17 7.741.13 9.38c-.047 1.612 1.18 2.806 2.724 3.744.79.48 1.66.892 2.488 1.258.265-.076.53-.142.793-.2 2.678-.588 5.362-.316 8.661.14 1.971.273 4.723.572 6.488 1.483 1.858.861 4.001 2.442 4.416 2.757 1.752 1.337 3.179 3.225 3.179 3.225-1.724-4.702-5.88-9.349-8.248-11.75-1.067-1.074-2.26-2.452-2.669-1.567 0 0 .277.441.18 2.161-.07 1.244-.735 1.9-1.109 2.143-.295.192-.594-.204-.58-.743.055-2.057 1.25-3.32.778-4.98l-.022-.08c-.36-1.16-2.978-2.818-4.005-3.411a22.054 22.054 0 0 0-2.148-1.059l-.028-.012c-1.182-.47-2.453-.786-3.595-.682-1.578.112-2.415.789-2.45 1.552 1.171 1.157 1.92 2.067 2.499 2.946.465.708.82 1.396 1.193 2.177.24.5.49 1.93-1.301.444-.297-.246-.763-.829-1.109-1.375-.19-.3-.342-.588-.412-.803C5.368 5.316 4.13 3.28 4.13 3.28c-.745-1.422-1.256-.326-1.992 1.097" transform="rotate(-51 95.55 -9.112)"/>
            </g>
        </g>
        <path fill="url(#h)" fill-rule="nonzero" d="M38.75 58.125h6.875V65H38.75zM49.375 58.125h6.875V65h-6.875zM38.75 68.125h6.875V75H38.75zM49.375 68.125h6.875V75h-6.875z"/>
        <path fill="url(#i)" fill-rule="nonzero" d="M12.765 49.46L45.55 27.345a1.25 1.25 0 0 1 1.398 0L79.735 49.46a1.25 1.25 0 0 1-.699 2.287H13.464a1.25 1.25 0 0 1-.7-2.287z"/>
    </g>
</svg>
