<svg xmlns="http://www.w3.org/2000/svg" width="160" height="160" viewBox="0 0 160 160">
    <defs>
        <linearGradient id="prefix__a" x1="0%" x2="100%" y1="5.283%" y2="94.717%">
            <stop offset="0%" stop-color="#F8091E"/>
            <stop offset="100%" stop-color="#A9085A"/>
        </linearGradient>
        <linearGradient id="prefix__c" x1="0%" x2="100%" y1="-3.568%" y2="100%">
            <stop offset="0%" stop-color="#EE3124"/>
            <stop offset="100%" stop-color="#FF9733"/>
        </linearGradient>
        <filter id="prefix__b" width="131.6%" height="169.4%" x="-15.8%" y="-34.7%" filterUnits="objectBoundingBox">
            <feGaussianBlur in="SourceGraphic" stdDeviation="3.704"/>
        </filter>
    </defs>
    <g fill="none" fill-rule="evenodd">
        <path d="M0 0H160V160H0z"/>
        <path fill="url(#prefix__a)" fill-rule="nonzero" d="M67.825 115c42.33 5 55.425-21 55.425-35.181 0-31.057-26.194-32.392-41.379-44.533C70.433 26.14 66.243 0 39.608 0 12.878 0-.545 16.933 1.118 48.762 2.78 80.59 25.494 110 67.825 115z" transform="translate(17 30.4)"/>
        <g transform="translate(44.8 44.8)">
            <ellipse cx="36.8" cy="61.4" fill="#062430" fill-rule="nonzero" filter="url(#prefix__b)" opacity=".3" rx="35.2" ry="16"/>
            <circle cx="35" cy="35" r="35" fill="url(#prefix__c)" fill-rule="nonzero" opacity=".9"/>
            <rect width="14.4" height="3.2" x="27.2" y="46.4" fill="#FFF" rx=".741"/>
            <circle cx="21.6" cy="32.8" r="4" fill="#FFF" fill-rule="nonzero"/>
            <circle cx="48.8" cy="32.8" r="4" fill="#FFF" fill-rule="nonzero"/>
            <path stroke="#FFF" stroke-linecap="round" stroke-linejoin="round" stroke-width=".741" d="M12.8 26.057c5.14-.342 9.164-2.094 12.07-5.257M56.87 26.057c-5.14-.342-9.163-2.094-12.07-5.257"/>
        </g>
        <path fill="#FFB166" fill-rule="nonzero" d="M26.917 128.148c-.69-.26-.69-1.236 0-1.496l6.195-2.34 2.34-6.195c.26-.69 1.236-.69 1.496 0l2.34 6.195 6.195 2.34c.69.26.69 1.236 0 1.496l-6.195 2.34-2.34 6.195c-.26.69-1.236.69-1.496 0l-2.34-6.195-6.195-2.34zm7.098.97c.215.082.385.252.466.467l1.719 4.55 1.719-4.55c.081-.215.25-.385.466-.466l4.55-1.719-4.55-1.719c-.215-.081-.385-.25-.466-.466l-1.719-4.55-1.719 4.55c-.081.215-.25.385-.466.466l-4.55 1.719 4.55 1.719zM134.223 46.668c-.43-.163-.43-.773 0-.936l1.967-.742.742-1.967c.163-.43.773-.43.936 0l.742 1.967 1.967.742c.43.163.43.773 0 .936l-1.967.742-.742 1.967c-.163.43-.773.43-.936 0l-.742-1.967-1.967-.742zm2.531-.113c.135.05.24.156.291.29l.355.94.355-.94c.05-.134.156-.24.29-.29l.94-.355-.94-.355c-.134-.05-.24-.156-.29-.29l-.355-.94-.355.94c-.05.134-.156.24-.29.29l-.94.355.94.355zM48.898 47.617C42.25 59.804 42.25 66.4 49.6 66.4s7.35-6.596.702-18.783c-.303-.556-1.101-.556-1.404 0zM49.6 64.8c-5.06 0-5.422-4.427-.525-14.087l.525-1.018c5.442 10.367 5.234 15.105 0 15.105zM121.684 41.242l-.403.826C118.26 48.418 118.421 52 122.4 52c4.147 0 4.147-3.894.716-10.758-.295-.59-1.137-.59-1.432 0zm.716 9.158c-1.996 0-2.223-1.967-.186-6.543l.186-.41c2.235 4.869 2.054 6.953 0 6.953zM129.684 49.242c-5.565 11.13-5.565 17.158.716 17.158 6.28 0 6.28-6.027.716-17.158-.295-.59-1.137-.59-1.432 0zM130.4 64.8c-4.094 0-4.367-4.043-.234-12.882l.234-.496c4.375 9.184 4.17 13.378 0 13.378zM96.084 86.042C90.52 97.172 90.52 103.2 96.8 103.2c6.28 0 6.28-6.027.716-17.158-.295-.59-1.137-.59-1.432 0zM96.8 101.6c-4.094 0-4.367-4.043-.234-12.882l.234-.496c4.375 9.184 4.17 13.378 0 13.378z"/>
    </g>
</svg>
