<svg xmlns="http://www.w3.org/2000/svg" xmlns:xlink="http://www.w3.org/1999/xlink" width="100" height="100" viewBox="0 0 100 100">
    <defs>
        <linearGradient id="b" x1="0%" y1="0%" y2="100%">
            <stop offset="0%" stop-color="#6A120C"/>
            <stop offset="43.781%" stop-color="#B21F15"/>
            <stop offset="79.575%" stop-color="#EE4C24"/>
            <stop offset="100%" stop-color="#FF7E00"/>
        </linearGradient>
        <path id="a" d="M51.402 62.057c26.487 9 33.204-7.519 33.204-16.382 0-19.41-6.621-30.124-16.111-37.712-7.15-5.716-14.888-9.426-36.147-7.125C.42 4.293-7.373 51.307 8.771 61.182c16.145 9.875 16.145-8.125 42.631.875z"/>
        <filter id="c" width="155.8%" height="223.1%" x="-27.9%" y="-61.5%" filterUnits="objectBoundingBox">
            <feGaussianBlur in="SourceGraphic" stdDeviation="5"/>
        </filter>
        <linearGradient id="d" x1="0%" y1="0%" y2="100%">
            <stop offset="0%" stop-color="#080C10"/>
            <stop offset="100%" stop-color="#115B79"/>
        </linearGradient>
        <linearGradient id="e" x1="6.645%" x2="81.838%" y1="0%" y2="96.366%">
            <stop offset="0%" stop-color="#FFB500"/>
            <stop offset="100%" stop-color="#FF7E00"/>
        </linearGradient>
        <linearGradient id="f" x1="113.939%" x2="35.486%" y1="115.699%" y2="50%">
            <stop offset="0%" stop-color="#FFB500"/>
            <stop offset="100%" stop-color="#FF7E00"/>
        </linearGradient>
    </defs>
    <g fill="none" fill-rule="evenodd">
        <path d="M0 0h100v100H0z"/>
        <use fill="url(#b)" fill-rule="nonzero" transform="rotate(180 45.422 44.028)" xlink:href="#a"/>
        <ellipse cx="56.875" cy="60.313" fill="#062430" fill-rule="nonzero" filter="url(#c)" opacity=".3" rx="26.875" ry="12.188"/>
        <path fill-rule="nonzero" stroke="#FFB166" stroke-linecap="round" stroke-linejoin="round" stroke-width=".625" d="M16.413 78.247l-4.083-1.542 4.083-1.542 1.542-4.083 1.542 4.083 4.083 1.542-4.083 1.542-1.542 4.083zM62.763 73.166l-1.361-.514 1.36-.514.515-1.361.514 1.36 1.36.515-1.36.514-.514 1.36z"/>
        <path fill="#FFF" fill-rule="nonzero" d="M35.175 21.485l-.79.186.65-.486-.725-.366.81.046-.32-.746.592.556.235-.777.096.806.679-.445-.445.679.806.096-.777.234.556.592-.746-.32.045.81-.365-.724-.487.65zM75.8 72.735l-.79.186.65-.486-.725-.366.81.046-.32-.746.592.556.235-.777.096.806.679-.445-.445.679.806.096-.777.234.556.592-.746-.32.045.81-.365-.724-.487.65zM40.8 85.86l-.79.186.65-.486-.725-.366.81.046-.32-.746.592.556.235-.777.096.806.679-.445-.445.679.806.096-.777.234.556.592-.746-.32.045.81-.365-.724-.487.65zM85.888 44.416l-1.186.278.975-.729-1.086-.549 1.215.069-.48-1.12.888.834.351-1.165.144 1.209 1.018-.667-.667 1.018 1.21.144-1.166.352.834.887-1.12-.48.069 1.216-.549-1.087-.729.975z"/>
        <path fill-rule="nonzero" stroke="#FFB166" stroke-linecap="round" stroke-linejoin="round" stroke-width=".625" d="M69.994 30.568l-1.588-.6 1.588-.6.6-1.587.6 1.588 1.587.6-1.588.6-.6 1.587z"/>
        <g fill-rule="nonzero" transform="rotate(1 -1054.592 1584.947)">
            <path stroke="url(#d)" stroke-width="4.5" d="M11.25 23.75h17.5V11a8.75 8.75 0 1 0-17.5 0v12.75z"/>
            <rect width="42" height="37" y="19" fill="url(#e)" rx="4"/>
            <path fill="url(#f)" d="M18.877 37.39a4 4 0 1 1 4.556-.215l1.685 6.605a1 1 0 0 1-.951 1.247l-5.601.098a1 1 0 0 1-.998-1.196l1.309-6.538z"/>
        </g>
    </g>
</svg>
