<svg xmlns="http://www.w3.org/2000/svg" width="100" height="100" viewBox="0 0 100 100">
    <defs>
        <linearGradient id="prefix__b" x1="0%" x2="100%" y1="100%" y2="0%">
            <stop offset="0%" stop-color="#EE3124"/>
            <stop offset="56.194%" stop-color="#F4837B"/>
            <stop offset="100%" stop-color="#FFCB99"/>
        </linearGradient>
        <filter id="prefix__a" width="161.5%" height="342.4%" x="-30.8%" y="-121.2%" filterUnits="objectBoundingBox">
            <feGaussianBlur in="SourceGraphic" stdDeviation="5"/>
        </filter>
    </defs>
    <g fill="none" fill-rule="evenodd">
        <path d="M0 0H100V100H0z"/>
        <g fill-rule="nonzero" transform="translate(13 11)">
            <ellipse cx="37.375" cy="77.964" fill="#062430" filter="url(#prefix__a)" opacity=".3" rx="24.375" ry="6.188"/>
            <circle cx="37" cy="37.776" r="37" fill="url(#prefix__b)"/>
        </g>
        <g fill="#FFF" fill-rule="nonzero" transform="rotate(10 5.801 327.308)">
            <path d="M4.806.653c2.12 0 3.837 1.717 3.837 3.837 0 .053 0 .106-.003.16L6.89 46.653c-.047 1.117-.966 1.999-2.084 1.999-1.117 0-2.036-.882-2.083-1.999L.973 4.65C.885 2.532 2.53.744 4.647.656c.053-.002.106-.003.16-.003z"/>
            <circle cx="4.97" cy="58.653" r="4"/>
        </g>
    </g>
</svg>
