<svg xmlns="http://www.w3.org/2000/svg" xmlns:xlink="http://www.w3.org/1999/xlink" width="100" height="100" viewBox="0 0 100 100">
    <defs>
        <linearGradient id="a" x1="0%" x2="99.397%" y1="6.293%" y2="93.18%">
            <stop offset="0%" stop-color="#6ED1B1"/>
            <stop offset="100%" stop-color="#FFCB99"/>
        </linearGradient>
        <linearGradient id="c" x1="36.729%" x2="80.442%" y1="2.802%" y2="89.201%">
            <stop offset="0%" stop-color="#A31D23"/>
            <stop offset="100%" stop-color="#EC3F29"/>
        </linearGradient>
        <path id="b" d="M8.93 54.16l28.9-53.136 34.817 34.913L19.933 64.66c-1.634-.717-3.657-2.27-6.07-4.66-2.412-2.39-4.056-4.336-4.932-5.84z"/>
    </defs>
    <g fill="none" fill-rule="evenodd">
        <path d="M0 0h100v100H0z"/>
        <g transform="translate(6.25 20)">
            <path fill="url(#a)" fill-rule="nonzero" d="M41.765 71.875c23.026 0 35.11-9.646 35.11-24.116 0-23.64-16.84-18.117-26.33-25.705C43.394 16.338 41.764 0 25.78 0 9.073 0-.965 10.583.074 30.476 1.113 50.369 18.74 71.875 41.765 71.875z"/>
            <mask id="d" fill="#fff">
                <use xlink:href="#b"/>
            </mask>
            <use fill="url(#c)" fill-rule="nonzero" xlink:href="#b"/>
            <path fill="#A82219" fill-rule="nonzero" d="M16.368 22.575c7.124 4.525 15.113 6.788 23.966 6.788 8.854 0 16.359-1.495 22.516-4.486l.003 9.887c-6.73 3.754-14.182 5.631-22.36 5.631-8.176 0-16.06-2.06-23.648-6.18l-.477-11.64z" mask="url(#d)" transform="rotate(45 39.61 31.485)"/>
            <path fill="#A82219" fill-rule="nonzero" d="M3.022 38.966c7.112 2.89 15.095 4.335 23.949 4.335 8.853 0 17.745-1.445 26.676-4.335l1.026 6.684c-9.68 3.72-18.609 5.579-26.786 5.579s-16.178-1.987-24.002-5.96l-.863-6.303z" mask="url(#d)" transform="rotate(45 28.847 45.097)"/>
        </g>
        <ellipse cx="61.396" cy="38.271" fill="#5F130E" fill-rule="nonzero" rx="24.375" ry="5" transform="rotate(45 61.396 38.271)"/>
        <g fill-rule="nonzero" stroke-linecap="round" stroke-linejoin="round" stroke-width="2.5">
            <path stroke="#FF7E00" d="M51.623 28.873c3.131-3.153 3.404-8.03.818-14.631"/>
            <path stroke="#F4837B" d="M61.06 40.075c2.327-1.944 3.596-3.353 3.807-4.227 1.815-7.516-.755-9.606-2.993-7.12-3.943 4.379 7.944 9.796 9.6-3.252 1.104-8.699 2.7-14.99 4.786-18.872"/>
            <path stroke="#0EB37E" d="M73.75 46.927c3.913-1.501 7.787-1.704 11.624-.61 3.836 1.095 6.404 3.033 7.702 5.816"/>
            <path stroke="#115B79" d="M73.902 40.088c-.16-4.174 1.21-5.44 4.113-3.8 2.903 1.642 4.922.613 6.057-3.085.918-3.44 3.193-4.3 6.827-2.58 3.633 1.72 5.56.262 5.78-4.373"/>
        </g>
        <g fill-rule="nonzero">
            <path fill="#FF7E00" d="M52.51 29.754a1.25 1.25 0 1 1-1.774-1.762c2.72-2.74 2.965-7.107.541-13.295a1.25 1.25 0 1 1 2.328-.911c2.748 7.015 2.446 12.402-1.095 15.968z"/>
            <path fill="#F4837B" d="M70.232 25.319c1.122-8.838 2.75-15.26 4.925-19.306a1.25 1.25 0 0 1 2.202 1.184c-1.998 3.718-3.56 9.877-4.646 18.437-.675 5.311-3.158 8.499-6.34 9.155-.082.437-.18.888-.292 1.353-.3 1.237-1.678 2.768-4.22 4.893a1.25 1.25 0 1 1-1.604-1.918c2.111-1.764 3.27-3.051 3.394-3.562.063-.262.12-.518.173-.768-3.432-.697-5.376-4.123-2.88-6.895 1.63-1.811 3.83-1.962 5.015 0 .586.969.84 2.379.755 4.158 1.702-.816 3.047-3.013 3.518-6.731zm-6.413 3.865c-.196-.325-.394-.312-1.017.38-.958 1.065-.267 2.374 1.394 2.749.116-1.483-.032-2.557-.377-3.129z"/>
            <path fill="#0EB37E" d="M74.198 48.094a1.25 1.25 0 0 1-.896-2.334c4.162-1.597 8.314-1.814 12.415-.645 4.163 1.188 7.028 3.351 8.492 6.49a1.25 1.25 0 0 1-2.266 1.056c-1.132-2.426-3.402-4.14-6.912-5.142-3.573-1.019-7.17-.83-10.833.575z"/>
            <path fill="#115B79" d="M75.152 40.04a1.25 1.25 0 0 1-2.499.096c-.193-5.035 2.082-7.137 5.977-4.935 2.155 1.218 3.331.618 4.234-2.32 1.13-4.239 4.267-5.424 8.57-3.387 2.758 1.305 3.815.505 3.996-3.303a1.25 1.25 0 0 1 2.497.118c-.259 5.463-3.054 7.578-7.563 5.444-2.965-1.403-4.38-.868-5.097 1.817-1.355 4.413-4.216 5.87-7.867 3.807-1.91-1.08-2.376-.649-2.248 2.663z"/>
        </g>
        <circle cx="63.125" cy="14.375" r="1.875" fill="#3EC297" fill-rule="nonzero"/>
        <circle cx="86.875" cy="54.375" r="1.875" fill="#FFB166" fill-rule="nonzero"/>
        <circle cx="91.25" cy="14.375" r="1.875" fill="#EE3124" fill-rule="nonzero"/>
    </g>
</svg>
