<svg xmlns="http://www.w3.org/2000/svg" xmlns:xlink="http://www.w3.org/1999/xlink" width="100" height="100" viewBox="0 0 100 100">
    <defs>
        <linearGradient id="b" x1="0%" x2="97.385%" y1="0%" y2="97.385%">
            <stop offset="0%" stop-color="#BA397B"/>
            <stop offset="56.351%" stop-color="#F16F4F"/>
            <stop offset="100%" stop-color="#FFB166"/>
        </linearGradient>
        <circle id="a" cx="42" cy="42" r="42"/>
        <linearGradient id="c" x1="25.203%" x2="74.498%" y1="0%" y2="99.397%">
            <stop offset="0%" stop-color="#6ED1B1"/>
            <stop offset="100%" stop-color="#FFCB99"/>
        </linearGradient>
        <filter id="e" width="159.1%" height="342.4%" x="-29.6%" y="-121.2%" filterUnits="objectBoundingBox">
            <feGaussianBlur in="SourceGraphic" stdDeviation="5"/>
        </filter>
        <linearGradient id="f" x1="6.085%" x2="93.915%" y1="0%" y2="100%">
            <stop offset="0%" stop-color="#080C10"/>
            <stop offset="100%" stop-color="#115B79"/>
        </linearGradient>
        <linearGradient id="g" x1="0%" y1=".063%" y2="99.937%">
            <stop offset="0%" stop-color="#080C10"/>
            <stop offset="100%" stop-color="#115B79"/>
        </linearGradient>
    </defs>
    <g fill="none" fill-rule="evenodd">
        <path d="M0 0h100v100H0z"/>
        <g transform="translate(8 9)">
            <mask id="d" fill="#fff">
                <use xlink:href="#a"/>
            </mask>
            <use fill="url(#b)" fill-rule="nonzero" xlink:href="#a"/>
            <path fill="url(#c)" fill-rule="nonzero" d="M13.192 27.192h50v71h-50z" mask="url(#d)" transform="rotate(-45 38.192 62.692)"/>
            <path fill="#115B79" fill-rule="nonzero" d="M-13.826 69.549h52v4h-52z" mask="url(#d)" transform="rotate(-45 12.174 71.549)"/>
            <path fill="#115B79" fill-rule="nonzero" d="M-13.826 54.683h52v4h-52z" mask="url(#d)" transform="rotate(-45 12.174 56.683)"/>
        </g>
        <g fill-rule="nonzero">
            <g transform="translate(40 10)">
                <ellipse cx="25.375" cy="45.188" fill="#062430" filter="url(#e)" opacity=".3" rx="25.375" ry="6.188"/>
                <g transform="translate(.817)">
                    <path fill="url(#f)" d="M4.883 37.76l7.3-.76-.187 7.607L0 50z" opacity=".4"/>
                    <path fill="url(#g)" d="M40.539 2l7.07 7.071-35.355 35.355-.018-.018-.067.077c-.756.756-2.856-.109-4.76-1.935l-.19-.186c-1.953-1.953-2.903-4.169-2.122-4.95a.824.824 0 0 1 .133-.107L40.539 2z"/>
                    <ellipse cx="43.933" cy="5.65" fill="#182630" rx="5" ry="2" transform="rotate(45 43.933 5.65)"/>
                </g>
            </g>
            <path stroke="#FFB166" stroke-linecap="round" stroke-linejoin="round" stroke-width=".625" d="M22.413 67.247l-4.083-1.542 4.083-1.542 1.542-4.083 1.542 4.083 4.083 1.542-4.083 1.542-1.542 4.083zM68.763 62.166l-1.361-.514 1.36-.514.515-1.361.514 1.36 1.36.515-1.36.514-.514 1.36z"/>
            <path fill="#FFF" d="M41.175 10.485l-.79.186.65-.486-.725-.366.81.046-.32-.746.592.556.235-.777.096.806.679-.445-.445.679.806.096-.777.234.556.592-.746-.32.045.81-.365-.724-.487.65zM81.8 61.735l-.79.186.65-.486-.725-.366.81.046-.32-.746.592.556.235-.777.096.806.679-.445-.445.679.806.096-.777.234.556.592-.746-.32.045.81-.365-.724-.487.65zM46.8 74.86l-.79.186.65-.486-.725-.366.81.046-.32-.746.592.556.235-.777.096.806.679-.445-.445.679.806.096-.777.234.556.592-.746-.32.045.81-.365-.724-.487.65zM91.888 33.416l-1.186.278.975-.729-1.086-.549 1.215.069-.48-1.12.888.834.351-1.165.144 1.209 1.018-.667-.667 1.018 1.21.144-1.166.352.834.887-1.12-.48.069 1.216-.549-1.087-.729.975z"/>
            <path stroke="#FFB166" stroke-linecap="round" stroke-linejoin="round" stroke-width=".625" d="M66.494 13.693l-1.588-.6 1.588-.6.6-1.587.6 1.588 1.587.6-1.588.6-.6 1.587z"/>
        </g>
    </g>
</svg>
