<svg xmlns="http://www.w3.org/2000/svg" width="100" height="100" viewBox="0 0 100 100">
    <defs>
        <linearGradient id="prefix__a" x1="0%" x2="100%" y1="2.092%" y2="94.717%">
            <stop offset="0%" stop-color="#EE3124"/>
            <stop offset="100%" stop-color="#FF9733"/>
        </linearGradient>
        <linearGradient id="prefix__c" x1="42.607%" x2="42.607%" y1="86.755%" y2="14.495%">
            <stop offset="0%" stop-color="#E8E8E8"/>
            <stop offset="100%" stop-color="#FFF"/>
        </linearGradient>
        <filter id="prefix__b" width="155.8%" height="223.1%" x="-27.9%" y="-61.5%" filterUnits="objectBoundingBox">
            <feGaussianBlur in="SourceGraphic" stdDeviation="5"/>
        </filter>
    </defs>
    <g fill="none" fill-rule="evenodd">
        <path d="M0 0H100V100H0z"/>
        <path fill="url(#prefix__a)" fill-rule="nonzero" d="M42.39 71.875C68.847 75 77.031 58.75 77.031 49.887c0-19.411-16.371-20.245-25.862-27.833C44.021 16.338 41.402 0 24.755 0 8.048 0-.34 10.583.699 30.476 1.738 50.369 15.933 68.75 42.39 71.875z" transform="translate(5.625 20)"/>
        <ellipse cx="49.875" cy="62.188" fill="#062430" fill-rule="nonzero" filter="url(#prefix__b)" opacity=".1" rx="26.875" ry="12.188"/>
        <circle cx="49.875" cy="49.875" r="21.875" fill="#FF9733"/>
        <path fill-rule="nonzero" stroke="#FFB166" stroke-linecap="round" stroke-linejoin="round" stroke-width=".625" d="M21.955 39.171L17.977 40.968 19.774 36.99 17.977 33.013 21.955 34.81 25.932 33.013 24.136 36.99 25.932 40.968z" transform="rotate(45 21.955 36.99)"/>
        <path fill-rule="nonzero" stroke="#FFCB99" stroke-linecap="round" stroke-linejoin="round" d="M70.5 64.245L67.318 65.682 68.755 62.5 67.318 59.318 70.5 60.755 73.682 59.318 72.245 62.5 73.682 65.682z" transform="rotate(45 70.5 62.5)"/>
        <path fill-rule="nonzero" stroke="#FFCB99" stroke-linecap="round" stroke-linejoin="round" d="M28.5 30.505L26.732 31.303 27.531 29.536 26.732 27.768 28.5 28.566 30.268 27.768 29.469 29.536 30.268 31.303z" transform="rotate(45 28.5 29.536)"/>
        <path fill="url(#prefix__c)" fill-rule="nonzero" d="M53.972 36.21c2.913 0 5.18.735 6.802 2.204 1.621 1.47 2.432 3.521 2.432 6.156s-.81 4.687-2.432 6.156c-1.621 1.47-3.889 2.204-6.802 2.204h-6.384v7.334c0 .912-.266 1.634-.798 2.166s-1.254.798-2.166.798c-.912 0-1.634-.266-2.166-.798s-.798-1.254-.798-2.166v-21.28c0-.887.24-1.57.722-2.052.481-.481 1.165-.722 2.052-.722h9.538zm-.76 4.522h-5.624v7.714h5.624c2.964 0 4.446-1.28 4.446-3.838 0-2.584-1.482-3.876-4.446-3.876z" transform="rotate(-17 52.433 49.719)"/>
        <circle cx="52" cy="20" r="2" fill="#0EB37E" fill-rule="nonzero"/>
        <circle cx="78" cy="36" r="1" fill="#2BADB4" fill-rule="nonzero"/>
        <circle cx="93" cy="8" r="2" fill="#F16F4F" fill-rule="nonzero"/>
        <circle cx="15.5" cy="14.5" r="1.5" fill="#F4837B" fill-rule="nonzero"/>
    </g>
</svg>
