<svg xmlns="http://www.w3.org/2000/svg" width="100" height="100" viewBox="0 0 100 100">
    <g fill="none" fill-rule="evenodd">
        <path d="M0 0H100V100H0z"/>
        <g>
            <path fill="#FFF" fill-rule="nonzero" d="M1.75 5H62.75V60H1.75z" transform="translate(18.25 18)"/>
            <path fill="#E62B1E" d="M57.791 0c3.294 0 5.989 2.675 5.989 5.944v51.42c0 3.268-2.695 5.943-5.989 5.943H5.988C2.695 63.307 0 60.632 0 57.363V5.944C0 2.674 2.695 0 5.988 0h51.803zM32.604 47.587C17.41 48.976 8.93 51.159 8.93 51.159l2.737 1.416c.543.28 1.178.363 1.781.229 2.406-.534 7.729-1.97 18.988-3.494 14.146-1.914 24.59-1.906 24.59-1.906l.028-.016s-9.257-1.19-24.45.199zm-2.667-16.55H27.35c-.229 0-.422.179-.453.419-.208 1.625-.959 7.47-1.09 8.28-.153.942-.183 2.3-1.5 3.11-.657.405-.993.482-1.254.61-.132.066-.281.136-.217.38l.666 2.18c.12.359.21.439.444.386.842-.188 2.875-.824 3.87-2.25 1.296-1.858 1.474-5.143 1.703-6.813.188-1.375.601-4.761.74-5.912.026-.207-.126-.39-.323-.39zm15.537 8.434c-1.243 0-2.067.777-2.279 1.736-.21.959.635 1.737 1.682 1.737 1.048 0 2.01-.713 2.22-1.672.212-.959-.575-1.8-1.623-1.8zM20.98 27.564h-2.173c-.662 0-1.264.387-1.538.989l-5.833 12.95c-.084.188.054.4.26.399l3.03-.018c.208-.001.395-.125.476-.316l1.007-2.367c.027-.064.09-.106.16-.106h3.668c.09 0 .166.068.175.158l.218 2.24c.026.26.245.459.507.459h2.973c.247 0 .435-.222.395-.465l-2.166-12.942c-.094-.566-.585-.98-1.16-.98zm15.736 3.51c-2.303.162-4.902 1.184-5.39 5.543-.486 4.36 1.591 5.2 4.578 5.325 2.189.091 3.906-.486 4.668-.801.265-.11.45-.345.489-.62l1.103-8.393c.044-.333-.13-.437-.478-.52-.923-.222-2.475-.709-4.97-.534zm1.622 3.062l-.605 4.544s-1.428.466-2.113-.027c-.686-.493-.743-1.507-.343-2.959.4-1.452 1.4-1.698 1.828-1.725.428-.028 1.233.167 1.233.167zm9.009-5.083h-2.458c-.267 0-.49.125-.516.433l-.713 8.599c-.017.211.127.394.31.394h1.835c.147 0 .274-.12.304-.286l1.5-8.61c.063-.33-.034-.53-.262-.53zm-27.93 2.662l.38 4.186c.01.113-.079.21-.193.21h-1.94c-.072 0-.122-.072-.095-.139l1.688-4.28c.032-.081.153-.064.16.023zm10.47-5.143c-1.08 0-1.832.777-2.06 1.736-.229.96.468 1.737 1.377 1.737s1.777-.714 2.005-1.673c.229-.959-.414-1.8-1.323-1.8zM51.83 15.657h-3.145c-.174 0-.34.077-.452.21l-3.583 4.241 3.51 7.728c.062.137.197.224.346.224h2.842c.292 0 .484-.305.362-.572l-3.349-7.28 3.663-4.109c.152-.17.032-.442-.194-.442zm-35.112-3.969H13.71c-.188 0-.348.142-.372.333l-1.406 10.787c-.251 1.787 1.451 3.268 3.226 3.268h5.968c.146 0 .27-.11.291-.256l.41-2.832c.022-.15-.093-.286-.243-.286h-5.278c-.377 0-.666-.34-.612-.719l1.397-9.857c.033-.231-.143-.438-.372-.438zm10.726 3.97h-2.548c-.169 0-.311.136-.335.32l-1.242 9.804c-.02.155.09.294.233.294h2.626c.187 0 .345-.151.371-.355l1.23-9.645c.026-.222-.131-.419-.335-.419zm7.489-.497c-3.634.012-4.364.273-4.836.728-.402.388-.491 1.157-.589 1.618-.092.432-1.101 7.47-1.23 8.374.534-.32.957-.606 1.86-.573.945.034 1.66.719 1.66.719l1.114-7.926c1.505-.264 2.291.065 2.553.493.262.43.13 1.517-.033 2.505-.132.799-.52 3.55-.665 4.581-.03.21.132.396.342.396h2.865c.157 0 .29-.116.314-.273.156-1.031.708-4.725.875-6.22.197-1.746-.521-4.434-4.23-4.422zm10.517-3.969h-3.127c-.096 0-.177.073-.19.17L40.188 25.83c-.017.13.081.247.21.247h3.088c.105 0 .195-.08.21-.188l1.946-14.472c.016-.118-.074-.224-.19-.224zm-19.038 0c-1.078 0-1.83.778-2.06 1.736-.228.96.47 1.737 1.378 1.737.909 0 1.777-.714 2.006-1.673.228-.959-.415-1.8-1.324-1.8z" transform="translate(18.25 18)"/>
        </g>
    </g>
</svg>
