<svg xmlns="http://www.w3.org/2000/svg" width="160" height="160" viewBox="0 0 160 160">
    <defs>
        <linearGradient id="prefix__a" x1="-5.397%" x2="107.312%" y1="2.265%" y2="102.877%">
            <stop offset="0%" stop-color="#284050"/>
            <stop offset="51.386%" stop-color="#0EB37E"/>
            <stop offset="100%" stop-color="#FFCB99"/>
        </linearGradient>
        <linearGradient id="prefix__c" x1="0%" x2="99.397%" y1="0%" y2="99.397%">
            <stop offset="0%" stop-color="#6ED1B1"/>
            <stop offset="100%" stop-color="#FFCB99"/>
        </linearGradient>
        <filter id="prefix__b" width="125.8%" height="156.9%" x="-12.9%" y="-28.5%" filterUnits="objectBoundingBox">
            <feGaussianBlur in="SourceGraphic" stdDeviation="4.444"/>
        </filter>
    </defs>
    <g fill="none" fill-rule="evenodd">
        <path d="M0 0H160.16V160.16H0z"/>
        <g fill-rule="nonzero" transform="translate(0 9.61)">
            <path fill="url(#prefix__a)" d="M81.471 138.138c50.848 6.006 66.576-25.225 66.576-42.26 0-37.306-31.464-38.908-49.703-53.493C84.604 31.4 79.57 0 47.577 0 15.468 0-.654 20.34 1.343 58.572c1.997 38.233 29.28 73.56 80.128 79.566z" transform="translate(0 2.128)"/>
            <ellipse cx="98.498" cy="79.605" fill="#062430" filter="url(#prefix__b)" opacity=".3" rx="51.652" ry="23.423"/>
            <circle cx="88.889" cy="53.78" r="42.042" fill="url(#prefix__c)" opacity=".8"/>
            <path fill="#FFF" d="M71.332 49.851c-.957-.918-2.478-.886-3.396.072-.919.957-.887 2.478.071 3.396l14.08 13.5c.93.892 2.398.892 3.327 0L109.687 43.5c.957-.919.988-2.44.069-3.397-.92-.956-2.44-.987-3.397-.068l-22.611 21.72-12.416-11.904z"/>
            <path stroke="#F8B7A7" stroke-linecap="round" stroke-linejoin="round" stroke-width="1.111" d="M23.697 115.302L16.053 118.755 19.506 111.111 16.053 103.466 23.697 106.919 31.342 103.466 27.889 111.111 31.342 118.755z" transform="rotate(45 23.697 111.11)"/>
            <path stroke="#FFB166" stroke-linecap="round" stroke-linejoin="round" stroke-width=".556" d="M110.802 104.717L108.254 105.869 109.405 103.32 108.254 100.772 110.802 101.923 113.35 100.772 112.199 103.32 113.35 105.869z" transform="rotate(45 110.802 103.32)"/>
            <path fill="#FFF" d="M57.503 5.277L56.681 6.603 56.904 5.059 55.422 5.547 56.586 4.507 55.137 3.928 56.696 3.88 55.959 2.505 57.184 3.47 57.503 1.943 57.821 3.47 59.047 2.505 58.309 3.88 59.869 3.928 58.42 4.507 59.583 5.547 58.101 5.059 58.324 6.603z" transform="rotate(45 57.503 4.273)"/>
            <path fill="#FFF" d="M135.581 103.775L134.759 105.102 134.982 103.558 133.5 104.045 134.664 103.006 133.215 102.427 134.774 102.378 134.037 101.004 135.262 101.969 135.581 100.442 135.899 101.969 137.125 101.004 136.387 102.378 137.947 102.427 136.498 103.006 137.661 104.045 136.18 103.558 136.403 105.102z" transform="rotate(45 135.58 102.772)"/>
            <path fill="#FFF" d="M68.314 129.001L67.492 130.327 67.715 128.783 66.233 129.27 67.396 128.231 65.948 127.652 67.507 127.604 66.769 126.229 67.995 127.194 68.314 125.667 68.632 127.194 69.858 126.229 69.12 127.604 70.68 127.652 69.231 128.231 70.394 129.27 68.912 128.783 69.135 130.327z" transform="rotate(45 68.314 127.997)"/>
            <path fill="#FFF" d="M155.323 49.494L154.091 51.483 154.425 49.167 152.202 49.899 153.947 48.34 151.774 47.471 154.113 47.398 153.007 45.336 154.845 46.784 155.323 44.493 155.801 46.784 157.64 45.336 156.533 47.398 158.872 47.471 156.699 48.34 158.444 49.899 156.221 49.167 156.556 51.483z" transform="rotate(45 155.323 47.988)"/>
            <path stroke="#FFB166" stroke-linecap="round" stroke-linejoin="round" stroke-width=".556" d="M124.865 22.917L121.892 24.26 123.235 21.287 121.892 18.314 124.865 19.657 127.837 18.314 126.495 21.287 127.837 24.26z" transform="rotate(45 124.865 21.287)"/>
        </g>
    </g>
</svg>
