<svg xmlns="http://www.w3.org/2000/svg" width="24" height="24" viewBox="0 0 24 24">
    <g fill="none">
        <path d="M0 0H24V24H0z"/>
        <g fill="#EE3124">
            <path d="M13 4c1.657 0 3 1.343 3 3v9c0 1.657-1.343 3-3 3H7c-1.657 0-3-1.343-3-3v-1h2v1c0 .552.448 1 1 1h6c.552 0 1-.448 1-1V7c0-.552-.448-1-1-1h-1V4h1z" transform="translate(4 2.5)"/>
            <path d="M3 0h6c1.657 0 3 1.343 3 3v9c0 1.657-1.343 3-3 3H3c-1.657 0-3-1.343-3-3V3C0 1.402 1.249.096 2.824.005L3 0zm0 2c-.552 0-1 .448-1 1v9c0 .552.448 1 1 1h6c.552 0 1-.448 1-1V3c0-.552-.448-1-1-1H3z" transform="translate(4 2.5)"/>
        </g>
    </g>
</svg>
