<svg xmlns="http://www.w3.org/2000/svg" width="25" height="24" viewBox="0 0 25 24">
    <g fill="none" fill-rule="evenodd">
        <path d="M0 0H24V24H0z" transform="translate(1)"/>
        <g transform="translate(1) translate(2 2)">
            <circle cx="10" cy="10" r="10" fill="#EE3124" fill-rule="nonzero"/>
            <path fill="#FFF" d="M15.711 13.054l-1.74-1.37c-.357-.285-.87-.228-1.17.115-.314.356-.514.599-.585.656-.528.528-1.626-.243-2.796-1.413S7.494 8.788 8.022 8.261c.057-.058.3-.272.656-.585.342-.3.4-.814.114-1.17l-1.37-1.74c-.242-.3-.656-.4-.998-.257-.47.2-1.313.898-1.54 1.127-1.256 1.27.313 4.151 3.052 6.904 2.74 2.754 5.635 4.323 6.89 3.053.229-.228.928-1.07 1.128-1.54.157-.357.057-.756-.243-.999z"/>
        </g>
    </g>
</svg>
