<svg xmlns="http://www.w3.org/2000/svg" width="24" height="24" viewBox="0 0 24 24">
    <g fill="none" fill-rule="evenodd">
        <rect width="20" height="20" x="2" y="2" fill="#EE3124" fill-rule="nonzero" rx="10"/>
        <path fill="#FFF" d="M8.705 7.292L12 10.588l3.295-3.296c.39-.39 1.023-.39 1.413 0 .39.39.39 1.023 0 1.413L13.412 12l3.296 3.295c.39.39.39 1.023 0 1.413-.39.39-1.023.39-1.413 0L12 13.412l-3.295 3.296c-.39.39-1.023.39-1.413 0-.39-.39-.39-1.023 0-1.413L10.588 12 7.292 8.705c-.39-.39-.39-1.023 0-1.413.39-.39 1.023-.39 1.413 0z"/>
    </g>
</svg>
