<svg xmlns="http://www.w3.org/2000/svg" width="25" height="24" viewBox="0 0 25 24">
    <g fill="none" fill-rule="evenodd" transform="translate(1)">
        <path d="M0 0H24V24H0z"/>
        <path fill="#EE3124" fill-rule="nonzero" d="M18 3c2.761 0 5 2.239 5 5v5c0 2.761-2.239 5-5 5h-6.001l-3.145 3.146c-.196.196-.512.196-.708 0-.093-.093-.146-.22-.146-.353V18H6c-2.761 0-5-2.239-5-5V8c0-2.761 2.239-5 5-5h12z"/>
        <circle cx="6.5" cy="10.5" r="1.5" fill="#FFF" fill-rule="nonzero"/>
        <circle cx="12.5" cy="10.5" r="1.5" fill="#FFF" fill-rule="nonzero"/>
        <circle cx="18.5" cy="10.5" r="1.5" fill="#FFF" fill-rule="nonzero"/>
    </g>
</svg>
