<?xml version="1.0" encoding="UTF-8"?>
<svg width="24px" height="24px" viewBox="0 0 24 24" version="1.1" xmlns="http://www.w3.org/2000/svg" xmlns:xlink="http://www.w3.org/1999/xlink">
    <!-- Generator: sketchtool 64 (101010) - https://sketch.com -->
    <title>2CE00D04-0C6A-4C49-BE83-AE5D30A3B3CE</title>
    <desc>Created with sketchtool.</desc>
    <g id="11---Profile" stroke="none" stroke-width="1" fill="none" fill-rule="evenodd">
        <g id="11.10.1-Movin" transform="translate(-304.000000, -165.000000)">
            <g id="List/Selection-with-Icon-and-captions" transform="translate(16.000000, 141.000000)">
                <g id="Icon/ic_delete" transform="translate(288.000000, 24.000000)">
                    <g id="Group-2" opacity="0">
                        <rect id="Rectangle" x="0" y="0" width="24" height="24"></rect>
                    </g>
                    <g id="Group" transform="translate(3.000000, 3.500000)" fill-rule="nonzero">
                        <path d="M14.9201227,5 L3.07987729,5 L3.85500779,15.0766965 C3.87504615,15.3371951 3.99367569,15.568021 4.17261268,15.7337222 C4.35154968,15.8994234 4.59079412,16 4.85206228,16 L13.1479377,16 C13.4092059,16 13.6484503,15.8994234 13.8273873,15.7337222 C14.0063243,15.568021 14.1249539,15.3371951 14.1449922,15.0766965 L14.9201227,5 Z" id="Rectangle" stroke="#EE3124" stroke-width="2"></path>
                        <rect id="Rectangle" fill="#EE3124" x="0" y="3.8" width="18" height="2" rx="1"></rect>
                        <rect id="Rectangle-Copy-2" fill="#EE3124" x="3" y="0.5" width="12" height="2" rx="1"></rect>
                        <rect id="Rectangle" stroke="#EE3124" x="6.5" y="6" width="1" height="10" rx="0.5"></rect>
                        <rect id="Rectangle-Copy" stroke="#EE3124" x="10.5" y="6" width="1" height="10" rx="0.5"></rect>
                    </g>
                </g>
            </g>
        </g>
    </g>
</svg>