<svg xmlns="http://www.w3.org/2000/svg" width="24" height="24" viewBox="0 0 24 24">
    <g fill="none" fill-rule="evenodd">
        <path fill="#EE3124" fill-rule="nonzero" d="M14.012 6.113l3.493 3.494c.015.014.03.028.047.04l-8.726 8.725c-.113.113-.251.197-.404.246l-3.118.993c-.527.168-1.09-.122-1.257-.649-.063-.198-.063-.41 0-.608l.998-3.115c.048-.152.132-.29.245-.402l8.722-8.724zm3.236-1.82l2.121 2.121c.39.39.39 1.024 0 1.414l-1.118 1.118-.039-.047-3.493-3.493 1.115-1.113c.39-.39 1.024-.39 1.414 0z"/>
    </g>
</svg>
