<?xml version="1.0" encoding="utf-8"?>
<!-- Generator: Adobe Illustrator 16.0.0, SVG Export Plug-In . SVG Version: 6.00 Build 0)  -->
<!DOCTYPE svg PUBLIC "-//W3C//DTD SVG 1.1//EN" "http://www.w3.org/Graphics/SVG/1.1/DTD/svg11.dtd">
<svg version="1.1" id="Layer_1" xmlns="http://www.w3.org/2000/svg" xmlns:xlink="http://www.w3.org/1999/xlink" x="0px" y="0px"
	 width="24px" height="24px" viewBox="0 0 24 24" enable-background="new 0 0 24 24" xml:space="preserve">
<path fill="none" d="M0,0h24v24H0V0z"/>
<g transform="translate(2.078 2)">
	<defs>
		<filter id="Adobe_OpacityMaskFilter" filterUnits="userSpaceOnUse" x="2" y="2.009" width="16" height="16">
			<feColorMatrix  type="matrix" values="1 0 0 0 0  0 1 0 0 0  0 0 1 0 0  0 0 0 1 0"/>
		</filter>
	</defs>
	<mask maskUnits="userSpaceOnUse" x="2" y="2.009" width="16" height="16" id="prefix__b">
		<g filter="url(#Adobe_OpacityMaskFilter)">
			<path id="prefix__a" fill="#FFFFFF" d="M0,0h20v20H0v-6h6V9H0V0z"/>
		</g>
	</mask>
	<path mask="url(#prefix__b)" fill="#FFFFFF" d="M9.86,18.008c-4.417-0.077-7.937-3.721-7.859-8.139S5.722,1.933,10.14,2.01
		c4.417,0.077,7.937,3.72,7.858,8.138C17.922,14.566,14.277,18.085,9.86,18.008z M9.895,16.008c3.314,0.059,6.046-2.582,6.104-5.894
		c0.058-3.313-2.581-6.046-5.895-6.104C6.791,3.952,4.059,6.591,4.001,9.904C3.943,13.217,6.582,15.95,9.895,16.008z"/>
</g>
<path fill="#FFFFFF" d="M5.08,10.055l2.719-1.268l0.845,1.813l-4.532,2.114L2,8.181l1.813-0.845L5.08,10.055z"/>
<path fill="#FFFFFF" d="M13.078,11.283h3v2h-5V7.6h2V11.283z"/>
</svg>
