<svg xmlns="http://www.w3.org/2000/svg" xmlns:xlink="http://www.w3.org/1999/xlink" width="24" height="24" viewBox="0 0 24 24">
    <defs>
        <path id="prefix__a" d="M0 0h20v20H0v-6h6V9H0V0z"/>
    </defs>
    <g fill="none" fill-rule="evenodd">
        <path fill-rule="nonzero" d="M0 0H24V24H0z"/>
        <g transform="translate(2.078 2)">
            <mask id="prefix__b" fill="#fff">
                <use xlink:href="#prefix__a"/>
            </mask>
            <path fill="#EE3124" d="M10 18.009c-4.418 0-8-3.582-8-8 0-4.419 3.582-8 8-8s8 3.581 8 8c0 4.418-3.582 8-8 8zm0-2c3.314 0 6-2.687 6-6 0-3.314-2.686-6-6-6s-6 2.686-6 6c0 3.313 2.686 6 6 6z" mask="url(#prefix__b)" transform="rotate(1 10 10.009)"/>
        </g>
        <path fill="#EE3124" d="M4.822 9.89L7.822 9.89 7.822 11.89 2.822 11.89 2.822 6.89 4.822 6.89z" transform="rotate(-25 5.322 9.39)"/>
        <path fill="#EE3124" d="M13.078 11.283L16.078 11.283 16.078 13.283 11.078 13.283 11.078 7.6 13.078 7.6z"/>
    </g>
</svg>
