<svg xmlns="http://www.w3.org/2000/svg" width="24" height="24" viewBox="0 0 24 24">
    <g fill="none" fill-rule="evenodd" transform="translate(2 2)">
        <circle cx="10" cy="10" r="10" fill="#EE3124" fill-rule="nonzero"/>
        <path fill="#FFF" d="M9.268 12.238v-.77c0-.205.012-.38.035-.525.023-.145.065-.275.126-.392.06-.117.14-.229.238-.336.098-.107.217-.236.357-.385l1.078-1.092c.233-.233.35-.537.35-.91 0-.364-.119-.66-.357-.889-.238-.229-.539-.343-.903-.343-.392 0-.714.133-.966.399s-.397.59-.434.973L7 7.828c.056-.448.173-.847.35-1.197a2.84 2.84 0 0 1 .693-.889c.285-.243.614-.427.987-.553A3.833 3.833 0 0 1 10.262 5c.42 0 .81.06 1.169.182.36.121.672.296.938.525.266.229.474.513.623.854.15.34.224.73.224 1.169 0 .308-.042.579-.126.812a2.64 2.64 0 0 1-.336.644 4.15 4.15 0 0 1-.483.56 78.788 78.788 0 0 1-.917.882c-.093.093-.17.189-.231.287-.06.098-.105.21-.133.336a2.127 2.127 0 0 0-.042.455v.532h-1.68zm-.28 1.946c0-.299.11-.555.329-.77a1.09 1.09 0 0 1 .791-.322c.299 0 .56.103.784.308a.986.986 0 0 1 .336.756c0 .299-.11.555-.329.77a1.09 1.09 0 0 1-.791.322c-.15 0-.292-.028-.427-.084a1.218 1.218 0 0 1-.357-.224 1.04 1.04 0 0 1-.245-.336.985.985 0 0 1-.091-.42z"/>
    </g>
</svg>
