<svg xmlns="http://www.w3.org/2000/svg" width="24" height="24" viewBox="0 0 24 24">
    <g fill="none" fill-rule="evenodd">
        <g fill="#EE3124" fill-rule="nonzero">
            <path d="M6 12c-3.314 0-6-2.686-6-6s2.686-6 6-6 6 2.686 6 6-2.686 6-6 6zm0-2c2.21 0 4-1.79 4-4S8.21 2 6 2 2 3.79 2 6s1.79 4 4 4z" transform="translate(3 3)"/>
            <path d="M10.414 10.414l4.95 4.95-4.95-4.95zm.707-.707l4.95 4.95c.39.39.39 1.024 0 1.414-.39.39-1.024.39-1.414 0l-4.95-4.95c-.39-.39-.39-1.023 0-1.414.39-.39 1.024-.39 1.414 0z" transform="translate(3 3)"/>
        </g>
    </g>
</svg>
