<svg xmlns="http://www.w3.org/2000/svg" width="48" height="48" viewBox="0 0 48 48">
    <g fill="none" fill-rule="evenodd">
        <path d="M0 0H48V48H0z"/>
        <g transform="translate(13 11)">
            <rect width="20.211" height="15.158" x="1.263" y="8.143" stroke="#EE3124" stroke-width="2" rx="1.895"/>
            <rect width="22.737" height="6.316" y="7.511" fill="#FFF" stroke="#EE3124" stroke-width="2" rx="1.895"/>
            <path fill="#E61D0F" d="M8.842 6.879H13.895V23.932000000000002H8.842z" opacity=".476"/>
            <path fill="#EE3124" d="M9.474 6.879H13.263V23.932000000000002H9.474z"/>
            <path stroke="#EE3124" stroke-width="2" d="M11.368 6.88H17.6c1.353 0 2.45-1.097 2.45-2.45 0-.341-.071-.678-.209-.99-.578-1.31-2.107-1.902-3.416-1.324-.289.128-.552.307-.776.529l-4.28 4.234h0zM10.551 6.88H4.319c-1.353 0-2.45-1.097-2.45-2.45 0-.341.072-.678.21-.99.577-1.31 2.107-1.902 3.416-1.324.288.128.551.307.775.529l4.281 4.234h0z"/>
        </g>
    </g>
</svg>
