<svg xmlns="http://www.w3.org/2000/svg" width="24" height="24" viewBox="0 0 24 24">
    <g fill="#EE3124" fill-rule="evenodd">
        <path d="M3.856 13.26l-.51-2.04h9.573l-.47 2.04H3.856zm10.005-6.12l-.47 2.04H2.835l-.51-2.04h11.535zM16.32 0c-.476 0-.887.327-.994.79l-.994 4.31H1.02c-.314 0-.61.145-.804.393-.193.247-.262.57-.186.875l2.04 8.16c.114.453.522.772.99.772h10.2c.475 0 .887-.327.994-.79l2.878-12.47H20.4V0h-4.08zM4.08 16.32c-1.126 0-2.04.914-2.04 2.04 0 1.128.914 2.04 2.04 2.04s2.04-.912 2.04-2.04c0-1.126-.914-2.04-2.04-2.04M12.24 16.32c-1.126 0-2.04.914-2.04 2.04 0 1.128.914 2.04 2.04 2.04s2.04-.912 2.04-2.04c0-1.126-.914-2.04-2.04-2.04" transform="translate(1.8 1.8)"/>
    </g>
</svg>
