<?xml version="1.0" encoding="utf-8"?>
<!-- Generator: Adobe Illustrator 16.0.0, SVG Export Plug-In . SVG Version: 6.00 Build 0)  -->
<!DOCTYPE svg PUBLIC "-//W3C//DTD SVG 1.1//EN" "http://www.w3.org/Graphics/SVG/1.1/DTD/svg11.dtd">
<svg version="1.1" id="Layer_1" xmlns="http://www.w3.org/2000/svg" xmlns:xlink="http://www.w3.org/1999/xlink" x="0px" y="0px"
	 width="24px" height="24px" viewBox="0 0 24 24" enable-background="new 0 0 24 24" xml:space="preserve">
<g>
	<g>
		<path fill="#FFFFFF" d="M9,15c-3.314,0-6-2.686-6-6s2.686-6,6-6s6,2.686,6,6S12.314,15,9,15z M9,13c2.21,0,4-1.79,4-4s-1.79-4-4-4
			S5,6.79,5,9S6.79,13,9,13z"/>
		<path fill="#FFFFFF" d="M13.414,13.414l4.949,4.95L13.414,13.414z M14.121,12.707l4.949,4.95c0.391,0.39,0.391,1.024,0,1.413
			c-0.389,0.391-1.023,0.391-1.413,0l-4.95-4.949c-0.39-0.391-0.39-1.023,0-1.414C13.098,12.317,13.73,12.317,14.121,12.707z"/>
	</g>
</g>
</svg>
