<svg xmlns="http://www.w3.org/2000/svg" width="48" height="48" viewBox="0 0 48 48">
    <defs>
        <linearGradient id="prefix__a" x1=".004%" x2="99.996%" y1="0%" y2="100%">
            <stop offset="0%" stop-color="#284050"/>
            <stop offset="100%" stop-color="#0EB37E"/>
        </linearGradient>
    </defs>
    <g fill="none" fill-rule="evenodd">
        <path d="M0 0H48V48H0z"/>
        <path fill="url(#prefix__a)" fill-rule="nonzero" d="M17.39 9.124l.291.08.2.088c1.077.474 2.927 2.236 4.285 3.915l.272.319c.388.46.658.812.88 1.154.442.582.724 1.225.824 1.932.138.887-.041 1.76-.5 2.524-.238.397-.472.67-.869 1.04l-.118.11c-.154.153-.32.305-.566.519l-.028.023c.07.103.154.223.264.38.611.876 2.257 2.504 3.975 3.922.037.03.088.07.149.114l.029-.034c.216-.251.37-.421.528-.58.019-.018.019-.018.075-.078l.033-.034.03-.032.003-.003c.365-.38.645-.615 1.032-.845.793-.472 1.695-.646 2.609-.475l.163.033.115.033c.45.129.712.248 1.28.573l.096.057c.385.24.677.46 1.192.89l.054.044.05.042c.129.107.198.164.28.229 1.741 1.41 3.507 3.257 3.983 4.338l.127.311.055.236c.3 1.3-.016 2.473-.91 3.586-.717.842-1.568 1.659-2.62 2.523-1.344 1.074-2.224 1.596-3.332 1.93-.177.06-.374.115-.588.16-1.386.295-2.914.146-4.423-.466-.422-.137-.956-.35-1.55-.623-1.227-.565-2.46-1.282-3.66-2.14-2.68-1.91-5.686-4.895-8.334-8.18-1.048-1.29-1.893-2.658-2.527-4.066-.3-.666-.528-1.277-.653-1.73-.583-1.494-.723-2.965-.456-4.326l.012-.057.02-.137.101-.352c.338-1.162.863-2.057 1.947-3.411.819-1.042 1.677-1.933 2.613-2.701 1.055-.844 2.281-1.156 3.566-.835zm-1.331 3.62c-.714.586-1.394 1.3-2.044 2.127-.747.932-1.13 1.537-1.322 2.197-.023.092-.05.198-.058.237-.131.668-.073 1.493.322 2.451l.024.071c.014.058.05.18.109.358.102.302.235.645.404 1.02.486 1.077 1.157 2.191 2.044 3.28 2.288 2.84 5.106 5.723 7.636 7.526 1.06.758 2.102 1.354 3.08 1.804.34.156.647.283.916.383.157.059.265.095.367.129.97.408 1.802.466 2.453.328.103-.022.167-.042.234-.066.66-.191 1.265-.575 2.193-1.317.846-.694 1.556-1.37 2.129-2.042.164-.205.197-.307.187-.389-.207-.469-1.995-2.218-2.96-2.999-.094-.075-.181-.147-.322-.264l-.103-.086c-.364-.303-.567-.46-.781-.594-.26-.148-.37-.203-.437-.224-.068-.013-.155.032-.324.199l-.078.079c.038-.04-.148.156-.197.204-.087.087-.194.206-.343.38-.059.069-.347.41-.43.505-.113.132-.211.244-.306.348-.474.52-.831.821-1.177.92-.733.244-2.274-.604-3.27-1.443-1.931-1.593-3.776-3.42-4.608-4.613-.294-.42-.44-.634-.638-.948-.11-.174-.21-.34-.3-.502-.437-.774-.633-1.336-.487-1.774.11-.363.423-.724.979-1.228.088-.08.183-.164.291-.258l.506-.436c.175-.152.294-.26.382-.348.054-.053.11-.106.21-.198.235-.219.29-.308.268-.43-.012-.1-.068-.212-.21-.39-.17-.271-.379-.544-.688-.91l-.264-.31c-.783-.966-2.533-2.753-2.923-2.932-.147-.037-.273.002-.464.155z"/>
    </g>
</svg>
