<svg xmlns="http://www.w3.org/2000/svg" width="48" height="48" viewBox="0 0 48 48">
    <g fill="none">
        <circle cx="20" cy="20" r="20" fill="#EE3124" transform="translate(4 4)"/>
        <path fill="#FFF" d="M26.233 27.872h-3.706L22.293 14h4.175l-.235 13.872zM22 33.336c0-.322.054-.62.161-.894.108-.273.264-.512.469-.717.205-.205.454-.364.747-.476.293-.113.625-.169.996-.169.361 0 .689.056.981.169.293.112.542.27.748.476.205.205.363.444.476.717.112.274.168.572.168.894 0 .312-.056.605-.168.879-.113.273-.271.508-.476.703-.206.195-.455.35-.748.461-.292.113-.62.169-.981.169-.371 0-.703-.056-.996-.169-.293-.112-.542-.266-.747-.461-.205-.195-.361-.43-.469-.703-.107-.274-.161-.567-.161-.88z"/>
    </g>
</svg>
