<svg xmlns="http://www.w3.org/2000/svg" width="48" height="48" viewBox="0 0 48 48">
    <defs>
        <linearGradient id="a" x1="0%" y1="27.778%" y2="72.222%">
            <stop offset="0%" stop-color="#6A120C"/>
            <stop offset="43.781%" stop-color="#B21F15"/>
            <stop offset="79.575%" stop-color="#EE4C24"/>
            <stop offset="100%" stop-color="#FF7E00"/>
        </linearGradient>
    </defs>
    <g fill="none" fill-rule="evenodd">
        <path d="M0 0h48v48H0z"/>
        <path fill="url(#a)" fill-rule="nonzero" d="M40.43 22.109c-.415 0-.794-.14-1.105-.456-4.073-4.177-9.526-6.494-15.325-6.494-5.799 0-11.252 2.282-15.325 6.459a1.524 1.524 0 0 1-2.209 0 1.587 1.587 0 0 1 0-2.247C11.16 14.597 17.373 12 24 12c6.627 0 12.84 2.633 17.534 7.371a1.587 1.587 0 0 1 0 2.247c-.31.315-.69.491-1.104.491zm-3.452 4.177a1.587 1.587 0 0 0 0-2.247C33.526 20.53 28.9 18.564 24 18.564s-9.492 1.93-12.978 5.475a1.587 1.587 0 0 0 0 2.247 1.524 1.524 0 0 0 2.21 0c2.864-2.913 6.695-4.528 10.768-4.528s7.904 1.615 10.769 4.528c.31.316.69.456 1.104.456.38 0 .794-.14 1.105-.456zm-4.59 4.633a1.587 1.587 0 0 0 0-2.246A11.644 11.644 0 0 0 24 25.163a11.644 11.644 0 0 0-8.387 3.51 1.587 1.587 0 0 0 0 2.246 1.524 1.524 0 0 0 2.209 0 8.643 8.643 0 0 1 6.213-2.597c2.347 0 4.556.912 6.212 2.597.311.316.69.457 1.105.457.345 0 .76-.14 1.035-.457zm-4.695 2.563a5.167 5.167 0 0 0-7.386 0l1.622 1.65a2.903 2.903 0 0 0 4.142 0l1.622-1.65z"/>
    </g>
</svg>
