<svg xmlns="http://www.w3.org/2000/svg" xmlns:xlink="http://www.w3.org/1999/xlink" width="40" height="40" viewBox="0 0 40 40">
    <defs>
        <path id="prefix__a" d="M0 20C0 8.954 8.954 0 20 0s20 8.954 20 20-8.954 20-20 20S0 31.046 0 20z"/>
    </defs>
    <g fill="none" fill-rule="evenodd">
        <use fill="#EE3124" xlink:href="#prefix__a"/>
        <circle cx="20" cy="20" r="12" stroke="#FFF" stroke-width="2"/>
        <path stroke="#FFF" stroke-width="2" d="M20 8c-4.739 3.032-7.108 6.979-7.108 11.84 0 4.863 2.37 8.916 7.108 12.16M20 8c4.739 3.032 7.108 6.979 7.108 11.84 0 4.863-2.37 8.916-7.108 12.16"/>
        <path stroke="#FFF" stroke-linecap="square" stroke-linejoin="bevel" stroke-width="2" d="M9 23c2.78 2 6.397 3 10.854 3 4.457 0 8.172-1 11.146-3M9 17.5c2.78-1.333 6.397-2 10.854-2 4.457 0 8.172.667 11.146 2"/>
        <path stroke="#FFF" stroke-width="2" d="M7.5 19.5c3.032.667 6.979 1 11.84 1 4.863 0 8.916-.333 12.16-1M20 8.476L20 31.496"/>
    </g>
</svg>
