<svg xmlns="http://www.w3.org/2000/svg" width="24" height="24" viewBox="0 0 24 24">
    <defs>
        <linearGradient id="prefix__a" x1="0%" x2="100%" y1="0%" y2="100%">
            <stop offset="0%" stop-color="#6A120C"/>
            <stop offset="43.781%" stop-color="#B21F15"/>
            <stop offset="79.575%" stop-color="#EE4C24"/>
            <stop offset="100%" stop-color="#FF7E00"/>
        </linearGradient>
    </defs>
    <g fill="none">
        <circle cx="12" cy="12" r="12" fill="url(#prefix__a)"/>
        <path fill="#FFF" d="M20.215 11.054c-.207 0-.397-.07-.552-.228C17.626 8.738 14.899 7.58 12 7.58c-2.9 0-5.626 1.14-7.663 3.229-.31.316-.793.316-1.104 0-.31-.316-.31-.808 0-1.123C5.58 7.299 8.686 6 12 6c3.314 0 6.42 1.316 8.767 3.686.31.315.31.807 0 1.123-.155.158-.345.245-.552.245zm-1.726 2.089c.31-.316.31-.807 0-1.123-1.726-1.755-4.038-2.738-6.489-2.738-2.45 0-4.746.965-6.489 2.738-.31.316-.31.807 0 1.123.31.316.794.316 1.105 0 1.432-1.457 3.348-2.264 5.384-2.264 2.036 0 3.952.807 5.384 2.264.156.158.346.228.553.228.19 0 .397-.07.552-.228zm-2.295 2.317c.31-.316.31-.808 0-1.124-1.122-1.14-2.606-1.755-4.194-1.755s-3.072.615-4.194 1.755c-.31.316-.31.808 0 1.124.311.316.794.316 1.105 0 .828-.843 1.933-1.3 3.106-1.3 1.174 0 2.278.457 3.107 1.3.155.158.345.228.552.228.173 0 .38-.07.518-.228zm-2.347 1.28c-1.019-1.035-2.675-1.035-3.694 0l.812.826c.569.579 1.501.579 2.07 0l.812-.825z"/>
    </g>
</svg>
