<svg xmlns="http://www.w3.org/2000/svg" width="24" height="24" viewBox="0 0 24 24">
    <g fill="none" fill-rule="evenodd">
        <path d="M0 0H24V24H0z"/>
        <path fill="#FFF" d="M21.659 14.28h-.17c-.381-1.069-1.392-1.84-2.59-1.84s-2.21.771-2.59 1.84h-6.78c-.381-1.069-1.392-1.84-2.59-1.84s-2.21.771-2.59 1.84h-1.09v-.92c0-1.015.825-1.84 1.84-1.84h16.56v2.76zm-2.76 1.84c-.507 0-.92-.413-.92-.92 0-.507.413-.92.92-.92.507 0 .92.413.92.92 0 .507-.413.92-.92.92zm-11.96 0c-.507 0-.92-.413-.92-.92 0-.507.413-.92.92-.92.507 0 .92.413.92.92 0 .507-.413.92-.92.92zm2.408-8.28h4.032v1.84H8.427l.92-1.84zM18.9 9.68h-3.68V7.84h2.3l1.38 1.84zm2.76 0h-.46l-2.484-3.312C18.54 6.136 18.269 6 17.979 6h-9.2c-.349 0-.667.197-.823.509L6.37 9.68H5.1c-2.03 0-3.68 1.65-3.68 3.68v1.84c0 .508.412.92.92.92h2.01c.38 1.069 1.392 1.84 2.59 1.84s2.209-.771 2.59-1.84h6.78c.38 1.069 1.392 1.84 2.59 1.84s2.209-.771 2.59-1.84h1.09c.508 0 .92-.412.92-.92v-3.68c0-1.015-.825-1.84-1.84-1.84z"/>
    </g>
</svg>
