<svg xmlns="http://www.w3.org/2000/svg" width="24" height="24" viewBox="0 0 24 24">
    <g fill="#333" fill-rule="evenodd" opacity=".5">
        <path d="M12 16a3.985 3.985 0 0 1-1.493-.294l5.199-5.199c.186.462.294.964.294 1.493a4 4 0 0 1-4 4m6.498-8.285l4.209-4.209-1.414-1.414-19.471 19.47 1.414 1.416 5.167-5.168c1.116.419 2.32.69 3.597.69 6.352 0 11-6.5 11-6.5s-1.726-2.401-4.502-4.285M4.785 15.771l3.26-3.261C8.025 12.342 8 12.174 8 12a4 4 0 0 1 4-4c.175 0 .342.023.51.046l2.155-2.155A9.688 9.688 0 0 0 12 5.5C5.649 5.5 1 12 1 12s1.432 1.992 3.785 3.771"/>
    </g>
</svg>
