<svg xmlns="http://www.w3.org/2000/svg" width="24" height="24" viewBox="0 0 24 24">
    <g fill="#EE3124" fill-rule="nonzero">
        <path d="M1.438 12.997l-.35-.396.255-.462C3.85 7.577 7.354 5.25 11.783 5.25c4.424 0 8.007 2.32 10.69 6.869l.284.482-.381.41c-3.542 3.806-7.072 5.739-10.592 5.739-3.527 0-6.976-1.94-10.346-5.753zm10.346 4.253c2.925 0 5.96-1.599 9.104-4.85-2.383-3.793-5.4-5.65-9.104-5.65-3.703 0-6.638 1.856-8.865 5.65 2.988 3.252 5.941 4.85 8.865 4.85z"/>
        <path d="M12 8c1.05 0 2.006.405 2.72 1.066A3.828 3.828 0 0 0 14 9c-1.105 0-2 .448-2 1s.895 1 2 1c.728 0 1.366-.195 1.716-.486A4 4 0 1 1 12 8z"/>
    </g>
</svg>
