<svg xmlns="http://www.w3.org/2000/svg" width="245" height="57" viewBox="0 0 245 57">
    <g fill="none" fill-rule="evenodd">
        <g>
            <g>
                <path fill="#DC3E37" d="M.872 4.68c0-1.594 1.275-2.859 2.896-2.859 1.619 0 2.902 1.265 2.902 2.86v20.747c0 1.598-1.283 2.864-2.902 2.864-1.621 0-2.896-1.266-2.896-2.864V4.68zM11.717 10.748c0-1.568 1.28-2.829 2.863-2.829 1.58 0 2.861 1.26 2.861 2.829v.22c1.318-1.675 3.015-3.2 5.915-3.2 4.33 0 6.853 2.828 6.853 7.4v10.3c0 1.558-1.283 2.824-2.861 2.824-1.585 0-2.866-1.266-2.866-2.824V16.95c0-2.677-1.274-4.051-3.463-4.051-2.184 0-3.578 1.374-3.578 4.05v8.518c0 1.558-1.28 2.824-2.861 2.824-1.583 0-2.863-1.266-2.863-2.824v-14.72zM39.06 18.066v.078c0 3.306 2.26 5.499 4.939 5.499 2.672 0 4.895-2.193 4.895-5.499v-.078c0-3.307-2.223-5.504-4.895-5.504-2.68 0-4.94 2.158-4.94 5.504zm15.48 7.402c0 1.557-1.28 2.824-2.86 2.824-1.582 0-2.862-1.267-2.862-2.824v-.264c-1.39 1.86-3.32 3.237-6.29 3.237-4.707 0-9.188-3.647-9.188-10.297v-.078c0-6.653 4.406-10.298 9.188-10.298 3.05 0 4.935 1.376 6.29 2.98V3.533c0-1.562 1.28-2.828 2.861-2.828 1.582 0 2.86 1.266 2.86 2.828v21.935zM58.99 10.748c0-1.568 1.278-2.829 2.862-2.829s2.863 1.26 2.863 2.829v14.72c0 1.558-1.279 2.824-2.863 2.824s-2.862-1.266-2.862-2.824v-14.72zm-.34-7.364c0-1.632 1.391-2.637 3.202-2.637 1.807 0 3.203 1.005 3.203 2.637v.071c0 1.636-1.396 2.68-3.203 2.68-1.811 0-3.202-1.044-3.202-2.68v-.07z" transform="translate(0 .525) translate(61 7) translate(0 3.46)"/>
                <path fill="#797B7A" d="M69.76 4.68c0-1.594 1.28-2.859 2.9-2.859 1.623 0 2.903 1.265 2.903 2.86v7.663h10.694V4.68c0-1.594 1.285-2.859 2.903-2.859 1.619 0 2.902 1.265 2.902 2.86v20.747c0 1.598-1.283 2.864-2.902 2.864-1.618 0-2.903-1.266-2.903-2.864v-7.806H75.563v7.806c0 1.598-1.28 2.864-2.903 2.864-1.62 0-2.9-1.266-2.9-2.864V4.68zM130.354 10.748c0-1.568 1.283-2.829 2.861-2.829 1.587 0 2.862 1.26 2.862 2.829v.22c1.323-1.675 3.055-3.2 5.955-3.2 2.632 0 4.63 1.154 5.685 3.16 1.773-2.043 3.88-3.16 6.629-3.16 4.257 0 6.819 2.53 6.819 7.326v10.374c0 1.558-1.284 2.824-2.863 2.824-1.583 0-2.866-1.266-2.866-2.824V16.95c0-2.677-1.204-4.051-3.35-4.051s-3.464 1.374-3.464 4.05v8.518c0 1.558-1.278 2.824-2.863 2.824-1.582 0-2.86-1.266-2.86-2.824V16.95c0-2.677-1.207-4.051-3.356-4.051-2.143 0-3.466 1.374-3.466 4.05v8.518c0 1.558-1.275 2.824-2.862 2.824-1.578 0-2.861-1.266-2.861-2.824v-14.72zM178.454 16.541c-.34-2.525-1.843-4.239-4.253-4.239-2.375 0-3.92 1.675-4.372 4.24h8.625zm-3.69 11.97c-6.065 0-10.546-4.2-10.546-10.295v-.071c0-5.691 4.106-10.378 9.983-10.378 6.74 0 9.714 5.47 9.714 9.59 0 1.64-1.167 2.715-2.67 2.715h-11.339c.566 2.568 2.37 3.908 4.931 3.908 1.585 0 2.9-.488 4.07-1.34.413-.298.792-.447 1.393-.447 1.28 0 2.222.967 2.222 2.234 0 .741-.337 1.295-.754 1.672-1.767 1.486-4.067 2.413-7.004 2.413z" transform="translate(0 .525) translate(61 7) translate(0 3.46)"/>
            </g>
            <g fill="#DC3E37">
                <path d="M16.856 16.056c-2.921 0-4.668 2.24-4.668 4.871v.066c0 2.64 1.914 4.936 4.737 4.936 2.927 0 4.674-2.23 4.674-4.865v-.071c0-2.633-1.918-4.937-4.743-4.937" transform="translate(0 .525) translate(61 7) translate(94)"/>
                <path d="M27.326 20.993c0 5.501-4.46 9.96-10.473 9.96-5.97 0-10.4-4.386-10.4-9.887v-.073c0-5.499 4.466-9.96 10.472-9.96 5.976 0 10.401 4.39 10.401 9.892v.068zM16.837 8.299L4.002 15.622v13.994c0 1.176.97 2.135 2.152 2.135h21.873c1.182 0 2.15-.96 2.15-2.135V15.835l-13.34-7.536z" transform="translate(0 .525) translate(61 7) translate(94)"/>
                <path d="M10.862 5.893c-.09.105-.148.176-.221.222-.04.029-.088.039-.133.039-.074 0-.139-.032-.191-.083-.084-.088-.093-.225-.025-.316.034-.055.08-.102.122-.149.05-.052.094-.105.139-.163.208-.302.34-.623.387-.963.071-.525-.034-1.024-.329-1.49-.076-.114-.174-.223-.268-.336-.079-.085-.103-.175-.079-.258.023-.083.087-.15.173-.18.031-.013.061-.013.088-.013.06 0 .11.02.16.064.127.114.25.26.363.437.211.323.343.668.403 1.042.027.14.034.291.036.408-.007.67-.212 1.238-.625 1.74m-1.238-.512c-.063 0-.123-.027-.169-.07-.055-.052-.083-.118-.083-.186 0-.073.028-.144.091-.208.09-.089.205-.213.264-.394.137-.396.062-.745-.216-1.049-.069-.073-.11-.123-.126-.194-.026-.098.026-.213.107-.264.049-.034.1-.046.148-.046.056 0 .107.017.147.052.166.128.293.303.398.53.087.196.137.412.132.63-.01.43-.172.801-.479 1.107-.066.055-.14.092-.214.092m-.619-.977c-.058.065-.147.1-.234.1-.182 0-.331-.149-.337-.329 0-.182.155-.333.337-.336.181 0 .333.151.335.334 0 .087-.037.168-.1.23m-.973.469c.054.061.109.116.122.193.026.102-.019.211-.109.262-.044.034-.096.046-.145.046-.057 0-.108-.016-.146-.046-.166-.132-.293-.304-.399-.534-.088-.199-.132-.41-.132-.632.01-.428.17-.8.48-1.1.06-.064.138-.099.216-.099.062 0 .119.028.167.07.055.057.083.12.083.189.006.07-.028.146-.091.202-.09.095-.208.223-.264.397-.134.397-.062.748.218 1.052m-.775 1.125c-.045.094-.122.146-.235.151h-.005c-.07 0-.132-.034-.188-.09-.186-.185-.343-.405-.468-.646-.165-.309-.268-.645-.298-1-.004-.057-.004-.113-.012-.167.008-.722.216-1.292.631-1.796.084-.1.142-.171.219-.217.042-.028.087-.039.13-.039.073 0 .143.03.196.082.08.089.092.22.027.315-.042.053-.085.1-.127.15-.047.05-.096.104-.131.159-.24.332-.375.704-.406 1.091-.05.57.111 1.092.48 1.555.02.033.052.06.078.091l.064.071c.079.095.094.185.045.29m25.88 6.692c-.134-.482-.45-.889-.89-1.135L17.832 3.388c-.286-.161-.612-.254-.936-.254-.336 0-.658.093-.948.254l-2.701 1.53-.068.04c.011-.128.02-.255.02-.385 0-2.447-1.997-4.432-4.47-4.432-2.463 0-4.463 1.985-4.463 4.432 0 1.764 1.038 3.28 2.536 3.994l-.169.095-5.1 2.893c-.434.246-.752.653-.884 1.135-.137.49-.071.994.179 1.432.337.587.97.95 1.648.95.274 0 .545-.066.79-.175l4.598-2.624V6.065c0-.21.175-.379.386-.379h.993c.21 0 .38.168.38.38V11.268l6.963-3.973c.158-.086.347-.086.502 0l13.542 7.647c.22.08.446.129.676.129.68 0 1.31-.363 1.647-.95.253-.438.316-.941.185-1.432" transform="translate(0 .525) translate(61 7) translate(94)"/>
            </g>
        </g>
        <path fill="#0B0B09" d="M55.489 28.095c0 15.322-12.422 27.745-27.745 27.745S0 43.417 0 28.095C0 12.772 12.42.351 27.744.351S55.49 12.772 55.49 28.095" transform="translate(0 .525)"/>
        <path fill="#FFFFFE" d="M9.33 21.405h2.146v2.424c.241-.354.506-.696.794-1.031.287-.335.617-.627.989-.878s.789-.451 1.254-.6c.464-.149 1.003-.223 1.617-.223 1.17 0 2.135.275 2.898.823.76.549 1.337 1.23 1.727 2.048.26-.39.552-.76.878-1.116.324-.35.692-.659 1.1-.919.409-.259.87-.464 1.38-.613.51-.149 1.082-.223 1.713-.223 1.672 0 2.982.515 3.93 1.548.947 1.031 1.42 2.448 1.42 4.248v8.918h-2.145v-8.399c0-1.39-.33-2.458-.99-3.21-.66-.75-1.574-1.127-2.744-1.127-.539 0-1.05.098-1.533.293-.483.195-.906.482-1.268.862s-.65.847-.863 1.404c-.214.557-.32 1.185-.32 1.89v8.287h-2.12v-8.452c0-1.354-.329-2.405-.988-3.158-.66-.749-1.565-1.126-2.717-1.126-.576 0-1.106.112-1.588.335-.484.223-.906.537-1.268.945-.362.408-.645.886-.85 1.433-.205.546-.306 1.153-.306 1.82v8.203H9.33V21.405zM36.387 40.352c-.595 0-1.133-.06-1.616-.18-.483-.122-.966-.304-1.45-.544l.725-1.7c.353.185.7.322 1.045.404.343.084.748.126 1.212.126.65 0 1.198-.196 1.644-.586.445-.389.883-1.096 1.31-2.118l-6.549-14.349h2.369l5.238 12.008 4.626-12.008h2.285l-6.047 14.88c-.612 1.485-1.295 2.534-2.047 3.148-.753.612-1.669.92-2.745.92" transform="translate(0 .525)"/>
    </g>
</svg>
